<!--
     generated by pixelart/v1.1.0 on 2021-09-25 12:38:28 UTC
     
     spots_hidef with settings:
         {"spot":10,"spacing":0}

-->

<svg version="1.1" width="240" height="240" xmlns="http://www.w3.org/2000/svg">
  <circle cx="45" cy="35" r="5" fill="#f84d54ff" />
  <circle cx="45" cy="45" r="5" fill="#f84d54ff" />
  <circle cx="45" cy="85" r="5" fill="#f84d54ff" />
  <circle cx="45" cy="95" r="5" fill="#f84d54ff" />
  <circle cx="55" cy="25" r="5" fill="#f84d54ff" />
  <circle cx="55" cy="35" r="5" fill="#f84d54ff" />
  <circle cx="55" cy="45" r="5" fill="#fcc5d0ff" />
  <circle cx="55" cy="55" r="5" fill="#f84d54ff" />
  <circle cx="55" cy="75" r="5" fill="#f84d54ff" />
  <circle cx="55" cy="85" r="5" fill="#fcc5d0ff" />
  <circle cx="55" cy="95" r="5" fill="#f84d54ff" />
  <circle cx="55" cy="105" r="5" fill="#f84d54ff" />
  <circle cx="55" cy="115" r="5" fill="#fff869ff" />
  <circle cx="55" cy="125" r="5" fill="#fff869ff" />
  <circle cx="55" cy="135" r="5" fill="#fff869ff" />
  <circle cx="55" cy="145" r="5" fill="#fff869ff" />
  <circle cx="55" cy="155" r="5" fill="#fff869ff" />
  <circle cx="55" cy="165" r="5" fill="#fff869ff" />
  <circle cx="55" cy="175" r="5" fill="#fff869ff" />
  <circle cx="55" cy="185" r="5" fill="#fff869ff" />
  <circle cx="55" cy="195" r="5" fill="#fff869ff" />
  <circle cx="55" cy="205" r="5" fill="#fff869ff" />
  <circle cx="55" cy="215" r="5" fill="#fff869ff" />
  <circle cx="55" cy="225" r="5" fill="#fff869ff" />
  <circle cx="55" cy="235" r="5" fill="#fff869ff" />
  <circle cx="65" cy="25" r="5" fill="#f84d54ff" />
  <circle cx="65" cy="35" r="5" fill="#fcc5d0ff" />
  <circle cx="65" cy="45" r="5" fill="#fcc5d0ff" />
  <circle cx="65" cy="55" r="5" fill="#fcc5d0ff" />
  <circle cx="65" cy="65" r="5" fill="#f84d54ff" />
  <circle cx="65" cy="75" r="5" fill="#fcc5d0ff" />
  <circle cx="65" cy="85" r="5" fill="#fcc5d0ff" />
  <circle cx="65" cy="95" r="5" fill="#fcc5d0ff" />
  <circle cx="65" cy="105" r="5" fill="#f84d54ff" />
  <circle cx="65" cy="115" r="5" fill="#fff869ff" />
  <circle cx="65" cy="125" r="5" fill="#fff869ff" />
  <circle cx="65" cy="135" r="5" fill="#fff869ff" />
  <circle cx="65" cy="145" r="5" fill="#fff869ff" />
  <circle cx="65" cy="155" r="5" fill="#fff869ff" />
  <circle cx="65" cy="165" r="5" fill="#fff869ff" />
  <circle cx="65" cy="175" r="5" fill="#fff869ff" />
  <circle cx="65" cy="185" r="5" fill="#fff869ff" />
  <circle cx="65" cy="195" r="5" fill="#fff869ff" />
  <circle cx="65" cy="205" r="5" fill="#fff869ff" />
  <circle cx="65" cy="215" r="5" fill="#fff869ff" />
  <circle cx="65" cy="225" r="5" fill="#fff869ff" />
  <circle cx="65" cy="235" r="5" fill="#fff869ff" />
  <circle cx="75" cy="35" r="5" fill="#f84d54ff" />
  <circle cx="75" cy="45" r="5" fill="#fcc5d0ff" />
  <circle cx="75" cy="55" r="5" fill="#f84d54ff" />
  <circle cx="75" cy="65" r="5" fill="#ffff53ff" />
  <circle cx="75" cy="75" r="5" fill="#f84d54ff" />
  <circle cx="75" cy="85" r="5" fill="#fcc5d0ff" />
  <circle cx="75" cy="95" r="5" fill="#f84d54ff" />
  <circle cx="75" cy="105" r="5" fill="#fff869ff" />
  <circle cx="75" cy="115" r="5" fill="#fff869ff" />
  <circle cx="75" cy="125" r="5" fill="#fff869ff" />
  <circle cx="75" cy="135" r="5" fill="#fff869ff" />
  <circle cx="75" cy="145" r="5" fill="#fff869ff" />
  <circle cx="75" cy="155" r="5" fill="#fff869ff" />
  <circle cx="75" cy="165" r="5" fill="#fff869ff" />
  <circle cx="75" cy="175" r="5" fill="#fff869ff" />
  <circle cx="75" cy="185" r="5" fill="#fff869ff" />
  <circle cx="75" cy="195" r="5" fill="#fff869ff" />
  <circle cx="75" cy="205" r="5" fill="#fff869ff" />
  <circle cx="75" cy="215" r="5" fill="#fff869ff" />
  <circle cx="75" cy="225" r="5" fill="#fff869ff" />
  <circle cx="75" cy="235" r="5" fill="#fff869ff" />
  <circle cx="85" cy="45" r="5" fill="#f84d54ff" />
  <circle cx="85" cy="55" r="5" fill="#ffff0fff" />
  <circle cx="85" cy="65" r="5" fill="#ffff53ff" />
  <circle cx="85" cy="75" r="5" fill="#ffff53ff" />
  <circle cx="85" cy="85" r="5" fill="#f84d54ff" />
  <circle cx="85" cy="95" r="5" fill="#fff869ff" />
  <circle cx="85" cy="105" r="5" fill="#fff869ff" />
  <circle cx="85" cy="115" r="5" fill="#e0e0e0ff" />
  <circle cx="85" cy="125" r="5" fill="#e0e0e0ff" />
  <circle cx="85" cy="135" r="5" fill="#e0e0e0ff" />
  <circle cx="85" cy="145" r="5" fill="#e0e0e0ff" />
  <circle cx="85" cy="155" r="5" fill="#e0e0e0ff" />
  <circle cx="85" cy="165" r="5" fill="#e0e0e0ff" />
  <circle cx="85" cy="175" r="5" fill="#e0e0e0ff" />
  <circle cx="85" cy="185" r="5" fill="#e0e0e0ff" />
  <circle cx="85" cy="195" r="5" fill="#000000ff" />
  <circle cx="85" cy="205" r="5" fill="#000000ff" />
  <circle cx="85" cy="215" r="5" fill="#000000ff" />
  <circle cx="85" cy="225" r="5" fill="#000000ff" />
  <circle cx="85" cy="235" r="5" fill="#000000ff" />
  <circle cx="95" cy="35" r="5" fill="#f84d54ff" />
  <circle cx="95" cy="45" r="5" fill="#fcc5d0ff" />
  <circle cx="95" cy="55" r="5" fill="#f84d54ff" />
  <circle cx="95" cy="65" r="5" fill="#ffff0fff" />
  <circle cx="95" cy="75" r="5" fill="#f84d54ff" />
  <circle cx="95" cy="85" r="5" fill="#fcc5d0ff" />
  <circle cx="95" cy="95" r="5" fill="#f84d54ff" />
  <circle cx="95" cy="105" r="5" fill="#e0e0e0ff" />
  <circle cx="95" cy="115" r="5" fill="#e0e0e0ff" />
  <circle cx="95" cy="125" r="5" fill="#000000ff" />
  <circle cx="95" cy="135" r="5" fill="#000000ff" />
  <circle cx="95" cy="145" r="5" fill="#e0e0e0ff" />
  <circle cx="95" cy="155" r="5" fill="#e0e0e0ff" />
  <circle cx="95" cy="165" r="5" fill="#e0e0e0ff" />
  <circle cx="95" cy="175" r="5" fill="#e0e0e0ff" />
  <circle cx="95" cy="185" r="5" fill="#e0e0e0ff" />
  <circle cx="95" cy="195" r="5" fill="#e0e0e0ff" />
  <circle cx="95" cy="205" r="5" fill="#e0e0e0ff" />
  <circle cx="95" cy="215" r="5" fill="#e0e0e0ff" />
  <circle cx="95" cy="225" r="5" fill="#e0e0e0ff" />
  <circle cx="95" cy="235" r="5" fill="#e0e0e0ff" />
  <circle cx="105" cy="25" r="5" fill="#f84d54ff" />
  <circle cx="105" cy="35" r="5" fill="#fcc5d0ff" />
  <circle cx="105" cy="45" r="5" fill="#fcc5d0ff" />
  <circle cx="105" cy="55" r="5" fill="#fcc5d0ff" />
  <circle cx="105" cy="65" r="5" fill="#f84d54ff" />
  <circle cx="105" cy="75" r="5" fill="#fcc5d0ff" />
  <circle cx="105" cy="85" r="5" fill="#fcc5d0ff" />
  <circle cx="105" cy="95" r="5" fill="#fcc5d0ff" />
  <circle cx="105" cy="105" r="5" fill="#f84d54ff" />
  <circle cx="105" cy="115" r="5" fill="#e0e0e0ff" />
  <circle cx="105" cy="125" r="5" fill="#000000ff" />
  <circle cx="105" cy="135" r="5" fill="#000000ff" />
  <circle cx="105" cy="145" r="5" fill="#e0e0e0ff" />
  <circle cx="105" cy="155" r="5" fill="#e0e0e0ff" />
  <circle cx="105" cy="165" r="5" fill="#e0e0e0ff" />
  <circle cx="105" cy="175" r="5" fill="#000000ff" />
  <circle cx="105" cy="185" r="5" fill="#000000ff" />
  <circle cx="105" cy="195" r="5" fill="#000000ff" />
  <circle cx="105" cy="205" r="5" fill="#000000ff" />
  <circle cx="105" cy="215" r="5" fill="#e0e0e0ff" />
  <circle cx="105" cy="225" r="5" fill="#e0e0e0ff" />
  <circle cx="105" cy="235" r="5" fill="#e0e0e0ff" />
  <circle cx="115" cy="25" r="5" fill="#f84d54ff" />
  <circle cx="115" cy="35" r="5" fill="#f84d54ff" />
  <circle cx="115" cy="45" r="5" fill="#fcc5d0ff" />
  <circle cx="115" cy="55" r="5" fill="#f84d54ff" />
  <circle cx="115" cy="65" r="5" fill="#fff869ff" />
  <circle cx="115" cy="75" r="5" fill="#f84d54ff" />
  <circle cx="115" cy="85" r="5" fill="#fcc5d0ff" />
  <circle cx="115" cy="95" r="5" fill="#f84d54ff" />
  <circle cx="115" cy="105" r="5" fill="#f84d54ff" />
  <circle cx="115" cy="115" r="5" fill="#e0e0e0ff" />
  <circle cx="115" cy="125" r="5" fill="#e0e0e0ff" />
  <circle cx="115" cy="135" r="5" fill="#e0e0e0ff" />
  <circle cx="115" cy="145" r="5" fill="#e0e0e0ff" />
  <circle cx="115" cy="155" r="5" fill="#e0e0e0ff" />
  <circle cx="115" cy="165" r="5" fill="#e0e0e0ff" />
  <circle cx="115" cy="175" r="5" fill="#e0e0e0ff" />
  <circle cx="115" cy="185" r="5" fill="#000000ff" />
  <circle cx="115" cy="195" r="5" fill="#e0e0e0ff" />
  <circle cx="115" cy="205" r="5" fill="#e0e0e0ff" />
  <circle cx="115" cy="215" r="5" fill="#000000ff" />
  <circle cx="115" cy="225" r="5" fill="#e0e0e0ff" />
  <circle cx="115" cy="235" r="5" fill="#e0e0e0ff" />
  <circle cx="125" cy="35" r="5" fill="#f84d54ff" />
  <circle cx="125" cy="45" r="5" fill="#f84d54ff" />
  <circle cx="125" cy="55" r="5" fill="#fff869ff" />
  <circle cx="125" cy="65" r="5" fill="#fff869ff" />
  <circle cx="125" cy="75" r="5" fill="#fff869ff" />
  <circle cx="125" cy="85" r="5" fill="#f84d54ff" />
  <circle cx="125" cy="95" r="5" fill="#f84d54ff" />
  <circle cx="125" cy="105" r="5" fill="#e0e0e0ff" />
  <circle cx="125" cy="115" r="5" fill="#e0e0e0ff" />
  <circle cx="125" cy="125" r="5" fill="#e0e0e0ff" />
  <circle cx="125" cy="135" r="5" fill="#e0e0e0ff" />
  <circle cx="125" cy="145" r="5" fill="#e0e0e0ff" />
  <circle cx="125" cy="155" r="5" fill="#000000ff" />
  <circle cx="125" cy="165" r="5" fill="#e0e0e0ff" />
  <circle cx="125" cy="175" r="5" fill="#000000ff" />
  <circle cx="125" cy="185" r="5" fill="#000000ff" />
  <circle cx="125" cy="195" r="5" fill="#000000ff" />
  <circle cx="125" cy="205" r="5" fill="#e0e0e0ff" />
  <circle cx="125" cy="215" r="5" fill="#000000ff" />
  <circle cx="125" cy="225" r="5" fill="#000000ff" />
  <circle cx="125" cy="235" r="5" fill="#000000ff" />
  <circle cx="135" cy="55" r="5" fill="#fff869ff" />
  <circle cx="135" cy="65" r="5" fill="#fff869ff" />
  <circle cx="135" cy="75" r="5" fill="#fff869ff" />
  <circle cx="135" cy="85" r="5" fill="#fff869ff" />
  <circle cx="135" cy="95" r="5" fill="#e0e0e0ff" />
  <circle cx="135" cy="105" r="5" fill="#e0e0e0ff" />
  <circle cx="135" cy="115" r="5" fill="#e0e0e0ff" />
  <circle cx="135" cy="125" r="5" fill="#e0e0e0ff" />
  <circle cx="135" cy="135" r="5" fill="#e0e0e0ff" />
  <circle cx="135" cy="145" r="5" fill="#e0e0e0ff" />
  <circle cx="135" cy="155" r="5" fill="#e0e0e0ff" />
  <circle cx="135" cy="165" r="5" fill="#e0e0e0ff" />
  <circle cx="135" cy="175" r="5" fill="#e0e0e0ff" />
  <circle cx="135" cy="185" r="5" fill="#000000ff" />
  <circle cx="135" cy="195" r="5" fill="#e0e0e0ff" />
  <circle cx="135" cy="205" r="5" fill="#e0e0e0ff" />
  <circle cx="135" cy="215" r="5" fill="#000000ff" />
  <circle cx="135" cy="225" r="5" fill="#fff869ff" />
  <circle cx="145" cy="55" r="5" fill="#fff869ff" />
  <circle cx="145" cy="65" r="5" fill="#f84d54ff" />
  <circle cx="145" cy="75" r="5" fill="#fff869ff" />
  <circle cx="145" cy="85" r="5" fill="#f84d54ff" />
  <circle cx="145" cy="95" r="5" fill="#e0e0e0ff" />
  <circle cx="145" cy="105" r="5" fill="#e0e0e0ff" />
  <circle cx="145" cy="115" r="5" fill="#e0e0e0ff" />
  <circle cx="145" cy="125" r="5" fill="#000000ff" />
  <circle cx="145" cy="135" r="5" fill="#000000ff" />
  <circle cx="145" cy="145" r="5" fill="#e0e0e0ff" />
  <circle cx="145" cy="155" r="5" fill="#e0e0e0ff" />
  <circle cx="145" cy="165" r="5" fill="#e0e0e0ff" />
  <circle cx="145" cy="175" r="5" fill="#000000ff" />
  <circle cx="145" cy="185" r="5" fill="#000000ff" />
  <circle cx="145" cy="195" r="5" fill="#000000ff" />
  <circle cx="145" cy="205" r="5" fill="#000000ff" />
  <circle cx="145" cy="215" r="5" fill="#fff869ff" />
  <circle cx="145" cy="225" r="5" fill="#fff869ff" />
  <circle cx="155" cy="55" r="5" fill="#f84d54ff" />
  <circle cx="155" cy="65" r="5" fill="#fcc5d0ff" />
  <circle cx="155" cy="75" r="5" fill="#f84d54ff" />
  <circle cx="155" cy="85" r="5" fill="#fcc5d0ff" />
  <circle cx="155" cy="95" r="5" fill="#f84d54ff" />
  <circle cx="155" cy="105" r="5" fill="#e0e0e0ff" />
  <circle cx="155" cy="115" r="5" fill="#e0e0e0ff" />
  <circle cx="155" cy="125" r="5" fill="#000000ff" />
  <circle cx="155" cy="135" r="5" fill="#000000ff" />
  <circle cx="155" cy="145" r="5" fill="#e0e0e0ff" />
  <circle cx="155" cy="155" r="5" fill="#e0e0e0ff" />
  <circle cx="155" cy="165" r="5" fill="#e0e0e0ff" />
  <circle cx="155" cy="175" r="5" fill="#e0e0e0ff" />
  <circle cx="155" cy="185" r="5" fill="#e0e0e0ff" />
  <circle cx="155" cy="195" r="5" fill="#000000ff" />
  <circle cx="155" cy="205" r="5" fill="#fff869ff" />
  <circle cx="155" cy="215" r="5" fill="#fff869ff" />
  <circle cx="155" cy="225" r="5" fill="#fff869ff" />
  <circle cx="165" cy="65" r="5" fill="#f84d54ff" />
  <circle cx="165" cy="75" r="5" fill="#ffff0fff" />
  <circle cx="165" cy="85" r="5" fill="#f84d54ff" />
  <circle cx="165" cy="95" r="5" fill="#fff869ff" />
  <circle cx="165" cy="105" r="5" fill="#fff869ff" />
  <circle cx="165" cy="115" r="5" fill="#fff869ff" />
  <circle cx="165" cy="125" r="5" fill="#fff869ff" />
  <circle cx="165" cy="135" r="5" fill="#fff869ff" />
  <circle cx="165" cy="145" r="5" fill="#fff869ff" />
  <circle cx="165" cy="155" r="5" fill="#fff869ff" />
  <circle cx="165" cy="165" r="5" fill="#fff869ff" />
  <circle cx="165" cy="175" r="5" fill="#fff869ff" />
  <circle cx="165" cy="185" r="5" fill="#fff869ff" />
  <circle cx="165" cy="195" r="5" fill="#fff869ff" />
  <circle cx="165" cy="205" r="5" fill="#fff869ff" />
  <circle cx="165" cy="215" r="5" fill="#fff869ff" />
  <circle cx="175" cy="55" r="5" fill="#f84d54ff" />
  <circle cx="175" cy="65" r="5" fill="#fcc5d0ff" />
  <circle cx="175" cy="75" r="5" fill="#f84d54ff" />
  <circle cx="175" cy="85" r="5" fill="#fcc5d0ff" />
  <circle cx="175" cy="95" r="5" fill="#f84d54ff" />
  <circle cx="175" cy="105" r="5" fill="#fff869ff" />
  <circle cx="175" cy="115" r="5" fill="#fff869ff" />
  <circle cx="175" cy="125" r="5" fill="#fff869ff" />
  <circle cx="175" cy="135" r="5" fill="#fff869ff" />
  <circle cx="175" cy="145" r="5" fill="#fff869ff" />
  <circle cx="175" cy="155" r="5" fill="#fff869ff" />
  <circle cx="175" cy="165" r="5" fill="#fff869ff" />
  <circle cx="175" cy="175" r="5" fill="#fff869ff" />
  <circle cx="175" cy="185" r="5" fill="#fff869ff" />
  <circle cx="175" cy="195" r="5" fill="#fff869ff" />
  <circle cx="175" cy="205" r="5" fill="#fff869ff" />
  <circle cx="185" cy="65" r="5" fill="#f84d54ff" />
  <circle cx="185" cy="85" r="5" fill="#f84d54ff" />
  <circle cx="185" cy="105" r="5" fill="#fff869ff" />
  <circle cx="185" cy="115" r="5" fill="#fff869ff" />
  <circle cx="185" cy="125" r="5" fill="#fff869ff" />
  <circle cx="185" cy="135" r="5" fill="#fff869ff" />
  <circle cx="185" cy="145" r="5" fill="#fff869ff" />
  <circle cx="185" cy="155" r="5" fill="#fff869ff" />
  <circle cx="185" cy="165" r="5" fill="#fff869ff" />
  <circle cx="185" cy="175" r="5" fill="#fff869ff" />
  <circle cx="185" cy="185" r="5" fill="#fff869ff" />
</svg>