<!--
     generated by pixelart/v1.1.0 on 2021-09-25 12:38:28 UTC
     
     spots_hidef with settings:
         {"spot":5,"spacing":5,"center":[-1,1],"radius":[3,6]}

-->

<svg version="1.1" width="475" height="475" xmlns="http://www.w3.org/2000/svg">
  <circle cx="121" cy="241" r="4" fill="#000000ff" />
  <circle cx="122" cy="252" r="5" fill="#000000ff" />
  <circle cx="121" cy="261" r="4" fill="#000000ff" />
  <circle cx="121" cy="271" r="3" fill="#000000ff" />
  <circle cx="121" cy="281" r="3" fill="#000000ff" />
  <circle cx="122" cy="292" r="3" fill="#000000ff" />
  <circle cx="132" cy="242" r="4" fill="#000000ff" />
  <circle cx="131" cy="251" r="4" fill="#000000ff" />
  <circle cx="131" cy="261" r="4" fill="#000000ff" />
  <circle cx="132" cy="272" r="5" fill="#000000ff" />
  <circle cx="131" cy="281" r="5" fill="#000000ff" />
  <circle cx="132" cy="292" r="3" fill="#000000ff" />
  <circle cx="141" cy="181" r="5" fill="#000000ff" />
  <circle cx="142" cy="192" r="5" fill="#000000ff" />
  <circle cx="141" cy="201" r="3" fill="#000000ff" />
  <circle cx="142" cy="212" r="4" fill="#000000ff" />
  <circle cx="141" cy="221" r="3" fill="#000000ff" />
  <circle cx="142" cy="232" r="5" fill="#000000ff" />
  <circle cx="141" cy="241" r="5" fill="#000000ff" />
  <circle cx="142" cy="252" r="5" fill="#000000ff" />
  <circle cx="141" cy="261" r="3" fill="#000000ff" />
  <circle cx="142" cy="272" r="5" fill="#000000ff" />
  <circle cx="141" cy="281" r="4" fill="#000000ff" />
  <circle cx="142" cy="292" r="4" fill="#000000ff" />
  <circle cx="141" cy="301" r="4" fill="#000000ff" />
  <circle cx="141" cy="311" r="4" fill="#000000ff" />
  <circle cx="141" cy="321" r="4" fill="#000000ff" />
  <circle cx="141" cy="331" r="5" fill="#000000ff" />
  <circle cx="142" cy="342" r="4" fill="#000000ff" />
  <circle cx="141" cy="351" r="3" fill="#000000ff" />
  <circle cx="142" cy="362" r="5" fill="#000000ff" />
  <circle cx="142" cy="372" r="5" fill="#000000ff" />
  <circle cx="151" cy="181" r="5" fill="#000000ff" />
  <circle cx="152" cy="192" r="3" fill="#000000ff" />
  <circle cx="152" cy="202" r="4" fill="#000000ff" />
  <circle cx="151" cy="211" r="3" fill="#000000ff" />
  <circle cx="152" cy="222" r="5" fill="#000000ff" />
  <circle cx="151" cy="231" r="4" fill="#000000ff" />
  <circle cx="152" cy="242" r="4" fill="#000000ff" />
  <circle cx="151" cy="251" r="4" fill="#000000ff" />
  <circle cx="151" cy="261" r="3" fill="#000000ff" />
  <circle cx="152" cy="272" r="3" fill="#000000ff" />
  <circle cx="151" cy="281" r="4" fill="#000000ff" />
  <circle cx="152" cy="292" r="4" fill="#000000ff" />
  <circle cx="152" cy="302" r="4" fill="#000000ff" />
  <circle cx="152" cy="312" r="3" fill="#000000ff" />
  <circle cx="152" cy="322" r="3" fill="#000000ff" />
  <circle cx="152" cy="332" r="3" fill="#000000ff" />
  <circle cx="151" cy="341" r="3" fill="#000000ff" />
  <circle cx="152" cy="352" r="5" fill="#000000ff" />
  <circle cx="151" cy="361" r="3" fill="#000000ff" />
  <circle cx="152" cy="372" r="3" fill="#000000ff" />
  <circle cx="161" cy="161" r="4" fill="#000000ff" />
  <circle cx="162" cy="172" r="3" fill="#000000ff" />
  <circle cx="162" cy="182" r="5" fill="#5f5147ff" />
  <circle cx="161" cy="191" r="4" fill="#5f5147ff" />
  <circle cx="161" cy="201" r="5" fill="#2a231cff" />
  <circle cx="161" cy="211" r="3" fill="#2a231cff" />
  <circle cx="162" cy="222" r="3" fill="#5f5147ff" />
  <circle cx="161" cy="231" r="4" fill="#5f5147ff" />
  <circle cx="161" cy="241" r="5" fill="#5f5147ff" />
  <circle cx="161" cy="251" r="5" fill="#5f5147ff" />
  <circle cx="161" cy="261" r="3" fill="#1f1a15ff" />
  <circle cx="162" cy="272" r="3" fill="#1f1a15ff" />
  <circle cx="161" cy="281" r="4" fill="#1f1a15ff" />
  <circle cx="161" cy="291" r="5" fill="#1f1a15ff" />
  <circle cx="162" cy="302" r="4" fill="#5f5147ff" />
  <circle cx="161" cy="311" r="4" fill="#5f5147ff" />
  <circle cx="162" cy="322" r="5" fill="#2a231cff" />
  <circle cx="162" cy="332" r="5" fill="#2a231cff" />
  <circle cx="162" cy="342" r="3" fill="#5f5147ff" />
  <circle cx="161" cy="351" r="4" fill="#5f5147ff" />
  <circle cx="161" cy="361" r="5" fill="#2a231cff" />
  <circle cx="161" cy="371" r="4" fill="#2a231cff" />
  <circle cx="162" cy="382" r="5" fill="#000000ff" />
  <circle cx="161" cy="391" r="5" fill="#000000ff" />
  <circle cx="161" cy="401" r="4" fill="#000000ff" />
  <circle cx="161" cy="411" r="4" fill="#000000ff" />
  <circle cx="162" cy="422" r="3" fill="#000000ff" />
  <circle cx="161" cy="431" r="5" fill="#000000ff" />
  <circle cx="162" cy="442" r="4" fill="#000000ff" />
  <circle cx="161" cy="451" r="4" fill="#000000ff" />
  <circle cx="162" cy="462" r="5" fill="#000000ff" />
  <circle cx="161" cy="471" r="5" fill="#000000ff" />
  <circle cx="172" cy="162" r="4" fill="#000000ff" />
  <circle cx="172" cy="172" r="3" fill="#000000ff" />
  <circle cx="172" cy="182" r="4" fill="#5f5147ff" />
  <circle cx="171" cy="191" r="3" fill="#5f5147ff" />
  <circle cx="172" cy="202" r="5" fill="#2a231cff" />
  <circle cx="172" cy="212" r="5" fill="#2a231cff" />
  <circle cx="171" cy="221" r="4" fill="#5f5147ff" />
  <circle cx="171" cy="231" r="3" fill="#5f5147ff" />
  <circle cx="172" cy="242" r="5" fill="#5f5147ff" />
  <circle cx="172" cy="252" r="3" fill="#5f5147ff" />
  <circle cx="172" cy="262" r="4" fill="#1f1a15ff" />
  <circle cx="171" cy="271" r="4" fill="#1f1a15ff" />
  <circle cx="172" cy="282" r="3" fill="#1f1a15ff" />
  <circle cx="172" cy="292" r="4" fill="#1f1a15ff" />
  <circle cx="171" cy="301" r="3" fill="#5f5147ff" />
  <circle cx="171" cy="311" r="3" fill="#5f5147ff" />
  <circle cx="171" cy="321" r="5" fill="#2a231cff" />
  <circle cx="172" cy="332" r="4" fill="#2a231cff" />
  <circle cx="171" cy="341" r="4" fill="#5f5147ff" />
  <circle cx="171" cy="351" r="5" fill="#5f5147ff" />
  <circle cx="172" cy="362" r="5" fill="#2a231cff" />
  <circle cx="171" cy="371" r="3" fill="#2a231cff" />
  <circle cx="172" cy="382" r="5" fill="#000000ff" />
  <circle cx="172" cy="392" r="3" fill="#000000ff" />
  <circle cx="172" cy="402" r="3" fill="#000000ff" />
  <circle cx="171" cy="411" r="3" fill="#000000ff" />
  <circle cx="171" cy="421" r="4" fill="#000000ff" />
  <circle cx="172" cy="432" r="5" fill="#000000ff" />
  <circle cx="172" cy="442" r="5" fill="#000000ff" />
  <circle cx="172" cy="452" r="5" fill="#000000ff" />
  <circle cx="171" cy="461" r="3" fill="#000000ff" />
  <circle cx="171" cy="471" r="5" fill="#000000ff" />
  <circle cx="182" cy="142" r="5" fill="#000000ff" />
  <circle cx="182" cy="152" r="5" fill="#000000ff" />
  <circle cx="181" cy="161" r="3" fill="#2a231cff" />
  <circle cx="181" cy="171" r="4" fill="#2a231cff" />
  <circle cx="181" cy="181" r="3" fill="#5f5147ff" />
  <circle cx="182" cy="192" r="3" fill="#5f5147ff" />
  <circle cx="182" cy="202" r="4" fill="#2a231cff" />
  <circle cx="182" cy="212" r="5" fill="#2a231cff" />
  <circle cx="182" cy="222" r="5" fill="#5f5147ff" />
  <circle cx="181" cy="231" r="5" fill="#5f5147ff" />
  <circle cx="181" cy="241" r="4" fill="#1f1a15ff" />
  <circle cx="181" cy="251" r="5" fill="#1f1a15ff" />
  <circle cx="182" cy="262" r="4" fill="#1f1a15ff" />
  <circle cx="181" cy="271" r="3" fill="#1f1a15ff" />
  <circle cx="181" cy="281" r="5" fill="#1f1a15ff" />
  <circle cx="181" cy="291" r="5" fill="#1f1a15ff" />
  <circle cx="181" cy="301" r="4" fill="#5f5147ff" />
  <circle cx="181" cy="311" r="4" fill="#5f5147ff" />
  <circle cx="181" cy="321" r="4" fill="#2a231cff" />
  <circle cx="182" cy="332" r="3" fill="#2a231cff" />
  <circle cx="181" cy="341" r="3" fill="#5f5147ff" />
  <circle cx="182" cy="352" r="5" fill="#5f5147ff" />
  <circle cx="182" cy="362" r="4" fill="#2a231cff" />
  <circle cx="181" cy="371" r="5" fill="#2a231cff" />
  <circle cx="181" cy="381" r="5" fill="#5f5147ff" />
  <circle cx="182" cy="392" r="5" fill="#5f5147ff" />
  <circle cx="182" cy="402" r="3" fill="#2a231cff" />
  <circle cx="182" cy="412" r="4" fill="#2a231cff" />
  <circle cx="181" cy="421" r="3" fill="#5f5147ff" />
  <circle cx="182" cy="432" r="3" fill="#5f5147ff" />
  <circle cx="182" cy="442" r="5" fill="#2a231cff" />
  <circle cx="182" cy="452" r="5" fill="#2a231cff" />
  <circle cx="182" cy="462" r="5" fill="#5f5147ff" />
  <circle cx="182" cy="472" r="3" fill="#5f5147ff" />
  <circle cx="192" cy="142" r="3" fill="#000000ff" />
  <circle cx="192" cy="152" r="5" fill="#000000ff" />
  <circle cx="192" cy="162" r="3" fill="#2a231cff" />
  <circle cx="191" cy="171" r="4" fill="#2a231cff" />
  <circle cx="192" cy="182" r="5" fill="#5f5147ff" />
  <circle cx="191" cy="191" r="5" fill="#5f5147ff" />
  <circle cx="191" cy="201" r="5" fill="#2a231cff" />
  <circle cx="191" cy="211" r="3" fill="#2a231cff" />
  <circle cx="192" cy="222" r="3" fill="#5f5147ff" />
  <circle cx="191" cy="231" r="3" fill="#5f5147ff" />
  <circle cx="192" cy="242" r="4" fill="#1f1a15ff" />
  <circle cx="191" cy="251" r="3" fill="#1f1a15ff" />
  <circle cx="192" cy="262" r="3" fill="#1f1a15ff" />
  <circle cx="192" cy="272" r="4" fill="#1f1a15ff" />
  <circle cx="191" cy="281" r="5" fill="#1f1a15ff" />
  <circle cx="191" cy="291" r="3" fill="#1f1a15ff" />
  <circle cx="191" cy="301" r="3" fill="#5f5147ff" />
  <circle cx="192" cy="312" r="3" fill="#5f5147ff" />
  <circle cx="191" cy="321" r="5" fill="#2a231cff" />
  <circle cx="192" cy="332" r="3" fill="#2a231cff" />
  <circle cx="192" cy="342" r="5" fill="#5f5147ff" />
  <circle cx="192" cy="352" r="4" fill="#5f5147ff" />
  <circle cx="191" cy="361" r="3" fill="#2a231cff" />
  <circle cx="191" cy="371" r="5" fill="#2a231cff" />
  <circle cx="191" cy="381" r="4" fill="#5f5147ff" />
  <circle cx="192" cy="392" r="5" fill="#5f5147ff" />
  <circle cx="191" cy="401" r="3" fill="#2a231cff" />
  <circle cx="191" cy="411" r="3" fill="#2a231cff" />
  <circle cx="191" cy="421" r="4" fill="#5f5147ff" />
  <circle cx="191" cy="431" r="4" fill="#5f5147ff" />
  <circle cx="192" cy="442" r="3" fill="#2a231cff" />
  <circle cx="191" cy="451" r="3" fill="#2a231cff" />
  <circle cx="191" cy="461" r="5" fill="#5f5147ff" />
  <circle cx="192" cy="472" r="5" fill="#5f5147ff" />
  <circle cx="201" cy="141" r="3" fill="#000000ff" />
  <circle cx="202" cy="152" r="3" fill="#000000ff" />
  <circle cx="202" cy="162" r="4" fill="#2a231cff" />
  <circle cx="201" cy="171" r="3" fill="#2a231cff" />
  <circle cx="201" cy="181" r="3" fill="#927b6aff" />
  <circle cx="202" cy="192" r="5" fill="#927b6aff" />
  <circle cx="202" cy="202" r="4" fill="#2a231cff" />
  <circle cx="202" cy="212" r="3" fill="#2a231cff" />
  <circle cx="201" cy="221" r="5" fill="#927b6aff" />
  <circle cx="202" cy="232" r="3" fill="#927b6aff" />
  <circle cx="201" cy="241" r="5" fill="#1f1a15ff" />
  <circle cx="202" cy="252" r="4" fill="#1f1a15ff" />
  <circle cx="201" cy="261" r="4" fill="#f6000bff" />
  <circle cx="201" cy="271" r="4" fill="#f6000bff" />
  <circle cx="202" cy="282" r="4" fill="#1f1a15ff" />
  <circle cx="201" cy="291" r="3" fill="#1f1a15ff" />
  <circle cx="201" cy="301" r="4" fill="#927b6aff" />
  <circle cx="202" cy="312" r="4" fill="#927b6aff" />
  <circle cx="202" cy="322" r="3" fill="#2a231cff" />
  <circle cx="201" cy="331" r="4" fill="#2a231cff" />
  <circle cx="202" cy="342" r="3" fill="#927b6aff" />
  <circle cx="202" cy="352" r="5" fill="#927b6aff" />
  <circle cx="201" cy="361" r="3" fill="#2a231cff" />
  <circle cx="202" cy="372" r="5" fill="#2a231cff" />
  <circle cx="201" cy="381" r="5" fill="#927b6aff" />
  <circle cx="201" cy="391" r="3" fill="#927b6aff" />
  <circle cx="201" cy="401" r="4" fill="#000000ff" />
  <circle cx="202" cy="412" r="4" fill="#000000ff" />
  <circle cx="202" cy="422" r="4" fill="#5f5147ff" />
  <circle cx="202" cy="432" r="4" fill="#5f5147ff" />
  <circle cx="202" cy="442" r="3" fill="#2a231cff" />
  <circle cx="202" cy="452" r="4" fill="#2a231cff" />
  <circle cx="201" cy="461" r="5" fill="#5f5147ff" />
  <circle cx="202" cy="472" r="3" fill="#5f5147ff" />
  <circle cx="212" cy="142" r="3" fill="#000000ff" />
  <circle cx="211" cy="151" r="4" fill="#000000ff" />
  <circle cx="212" cy="162" r="3" fill="#2a231cff" />
  <circle cx="212" cy="172" r="3" fill="#2a231cff" />
  <circle cx="212" cy="182" r="4" fill="#927b6aff" />
  <circle cx="212" cy="192" r="3" fill="#927b6aff" />
  <circle cx="211" cy="201" r="5" fill="#2a231cff" />
  <circle cx="211" cy="211" r="3" fill="#2a231cff" />
  <circle cx="212" cy="222" r="4" fill="#927b6aff" />
  <circle cx="211" cy="231" r="5" fill="#927b6aff" />
  <circle cx="212" cy="242" r="4" fill="#1f1a15ff" />
  <circle cx="212" cy="252" r="3" fill="#1f1a15ff" />
  <circle cx="212" cy="262" r="3" fill="#f6000bff" />
  <circle cx="211" cy="271" r="3" fill="#f6000bff" />
  <circle cx="212" cy="282" r="5" fill="#1f1a15ff" />
  <circle cx="211" cy="291" r="5" fill="#1f1a15ff" />
  <circle cx="212" cy="302" r="4" fill="#927b6aff" />
  <circle cx="211" cy="311" r="5" fill="#927b6aff" />
  <circle cx="212" cy="322" r="5" fill="#2a231cff" />
  <circle cx="211" cy="331" r="4" fill="#2a231cff" />
  <circle cx="212" cy="342" r="4" fill="#927b6aff" />
  <circle cx="212" cy="352" r="4" fill="#927b6aff" />
  <circle cx="212" cy="362" r="4" fill="#2a231cff" />
  <circle cx="212" cy="372" r="3" fill="#2a231cff" />
  <circle cx="212" cy="382" r="4" fill="#927b6aff" />
  <circle cx="211" cy="391" r="4" fill="#927b6aff" />
  <circle cx="212" cy="402" r="4" fill="#000000ff" />
  <circle cx="212" cy="412" r="3" fill="#000000ff" />
  <circle cx="211" cy="421" r="5" fill="#5f5147ff" />
  <circle cx="212" cy="432" r="3" fill="#5f5147ff" />
  <circle cx="211" cy="441" r="3" fill="#2a231cff" />
  <circle cx="212" cy="452" r="3" fill="#2a231cff" />
  <circle cx="212" cy="462" r="5" fill="#5f5147ff" />
  <circle cx="212" cy="472" r="4" fill="#5f5147ff" />
  <circle cx="222" cy="142" r="3" fill="#000000ff" />
  <circle cx="221" cy="151" r="4" fill="#000000ff" />
  <circle cx="221" cy="161" r="3" fill="#927b6aff" />
  <circle cx="222" cy="172" r="5" fill="#927b6aff" />
  <circle cx="221" cy="181" r="5" fill="#927b6aff" />
  <circle cx="222" cy="192" r="4" fill="#927b6aff" />
  <circle cx="221" cy="201" r="3" fill="#2a231cff" />
  <circle cx="221" cy="211" r="3" fill="#2a231cff" />
  <circle cx="221" cy="221" r="5" fill="#927b6aff" />
  <circle cx="221" cy="231" r="3" fill="#927b6aff" />
  <circle cx="222" cy="242" r="4" fill="#1f1a15ff" />
  <circle cx="221" cy="251" r="3" fill="#1f1a15ff" />
  <circle cx="222" cy="262" r="5" fill="#1f1a15ff" />
  <circle cx="222" cy="272" r="4" fill="#1f1a15ff" />
  <circle cx="221" cy="281" r="3" fill="#1f1a15ff" />
  <circle cx="222" cy="292" r="3" fill="#1f1a15ff" />
  <circle cx="221" cy="301" r="4" fill="#927b6aff" />
  <circle cx="222" cy="312" r="4" fill="#927b6aff" />
  <circle cx="222" cy="322" r="5" fill="#2a231cff" />
  <circle cx="222" cy="332" r="5" fill="#2a231cff" />
  <circle cx="221" cy="341" r="4" fill="#927b6aff" />
  <circle cx="222" cy="352" r="4" fill="#927b6aff" />
  <circle cx="221" cy="361" r="4" fill="#2a231cff" />
  <circle cx="222" cy="372" r="4" fill="#2a231cff" />
  <circle cx="221" cy="381" r="3" fill="#927b6aff" />
  <circle cx="221" cy="391" r="5" fill="#927b6aff" />
  <circle cx="221" cy="401" r="5" fill="#2a231cff" />
  <circle cx="222" cy="412" r="5" fill="#2a231cff" />
  <circle cx="221" cy="421" r="5" fill="#000000ff" />
  <circle cx="222" cy="432" r="5" fill="#000000ff" />
  <circle cx="222" cy="442" r="3" fill="#2a231cff" />
  <circle cx="221" cy="451" r="3" fill="#2a231cff" />
  <circle cx="221" cy="461" r="5" fill="#927b6aff" />
  <circle cx="221" cy="471" r="5" fill="#927b6aff" />
  <circle cx="232" cy="142" r="4" fill="#000000ff" />
  <circle cx="232" cy="152" r="5" fill="#000000ff" />
  <circle cx="231" cy="161" r="4" fill="#927b6aff" />
  <circle cx="231" cy="171" r="4" fill="#927b6aff" />
  <circle cx="231" cy="181" r="4" fill="#927b6aff" />
  <circle cx="232" cy="192" r="4" fill="#927b6aff" />
  <circle cx="232" cy="202" r="5" fill="#2a231cff" />
  <circle cx="232" cy="212" r="5" fill="#2a231cff" />
  <circle cx="231" cy="221" r="4" fill="#927b6aff" />
  <circle cx="231" cy="231" r="3" fill="#927b6aff" />
  <circle cx="232" cy="242" r="4" fill="#1f1a15ff" />
  <circle cx="231" cy="251" r="3" fill="#1f1a15ff" />
  <circle cx="231" cy="261" r="5" fill="#1f1a15ff" />
  <circle cx="232" cy="272" r="4" fill="#1f1a15ff" />
  <circle cx="232" cy="282" r="5" fill="#1f1a15ff" />
  <circle cx="231" cy="291" r="4" fill="#1f1a15ff" />
  <circle cx="231" cy="301" r="5" fill="#927b6aff" />
  <circle cx="231" cy="311" r="4" fill="#927b6aff" />
  <circle cx="231" cy="321" r="3" fill="#2a231cff" />
  <circle cx="231" cy="331" r="3" fill="#2a231cff" />
  <circle cx="231" cy="341" r="3" fill="#927b6aff" />
  <circle cx="232" cy="352" r="5" fill="#927b6aff" />
  <circle cx="232" cy="362" r="4" fill="#2a231cff" />
  <circle cx="231" cy="371" r="4" fill="#2a231cff" />
  <circle cx="231" cy="381" r="4" fill="#927b6aff" />
  <circle cx="231" cy="391" r="3" fill="#927b6aff" />
  <circle cx="231" cy="401" r="5" fill="#2a231cff" />
  <circle cx="232" cy="412" r="4" fill="#2a231cff" />
  <circle cx="232" cy="422" r="3" fill="#000000ff" />
  <circle cx="232" cy="432" r="4" fill="#000000ff" />
  <circle cx="232" cy="442" r="3" fill="#2a231cff" />
  <circle cx="231" cy="451" r="3" fill="#2a231cff" />
  <circle cx="232" cy="462" r="4" fill="#927b6aff" />
  <circle cx="232" cy="472" r="4" fill="#927b6aff" />
  <circle cx="242" cy="142" r="3" fill="#000000ff" />
  <circle cx="241" cy="151" r="4" fill="#000000ff" />
  <circle cx="241" cy="161" r="4" fill="#927b6aff" />
  <circle cx="242" cy="172" r="3" fill="#927b6aff" />
  <circle cx="242" cy="182" r="5" fill="#2a231cff" />
  <circle cx="242" cy="192" r="5" fill="#2a231cff" />
  <circle cx="241" cy="201" r="3" fill="#2a231cff" />
  <circle cx="242" cy="212" r="4" fill="#2a231cff" />
  <circle cx="242" cy="222" r="3" fill="#927b6aff" />
  <circle cx="242" cy="232" r="3" fill="#927b6aff" />
  <circle cx="241" cy="241" r="5" fill="#1f1a15ff" />
  <circle cx="242" cy="252" r="3" fill="#1f1a15ff" />
  <circle cx="242" cy="262" r="3" fill="#1f1a15ff" />
  <circle cx="242" cy="272" r="3" fill="#1f1a15ff" />
  <circle cx="241" cy="281" r="5" fill="#1f1a15ff" />
  <circle cx="241" cy="291" r="4" fill="#1f1a15ff" />
  <circle cx="241" cy="301" r="3" fill="#2a231cff" />
  <circle cx="242" cy="312" r="3" fill="#2a231cff" />
  <circle cx="242" cy="322" r="4" fill="#2a231cff" />
  <circle cx="242" cy="332" r="3" fill="#2a231cff" />
  <circle cx="241" cy="341" r="3" fill="#927b6aff" />
  <circle cx="241" cy="351" r="5" fill="#927b6aff" />
  <circle cx="242" cy="362" r="3" fill="#2a231cff" />
  <circle cx="241" cy="371" r="4" fill="#2a231cff" />
  <circle cx="241" cy="381" r="4" fill="#927b6aff" />
  <circle cx="241" cy="391" r="3" fill="#927b6aff" />
  <circle cx="242" cy="402" r="4" fill="#2a231cff" />
  <circle cx="242" cy="412" r="4" fill="#2a231cff" />
  <circle cx="241" cy="421" r="3" fill="#000000ff" />
  <circle cx="242" cy="432" r="3" fill="#000000ff" />
  <circle cx="242" cy="442" r="5" fill="#000000ff" />
  <circle cx="241" cy="451" r="3" fill="#000000ff" />
  <circle cx="242" cy="462" r="4" fill="#000000ff" />
  <circle cx="241" cy="471" r="3" fill="#000000ff" />
  <circle cx="252" cy="142" r="4" fill="#000000ff" />
  <circle cx="251" cy="151" r="5" fill="#000000ff" />
  <circle cx="252" cy="162" r="5" fill="#927b6aff" />
  <circle cx="252" cy="172" r="3" fill="#927b6aff" />
  <circle cx="252" cy="182" r="5" fill="#2a231cff" />
  <circle cx="251" cy="191" r="5" fill="#2a231cff" />
  <circle cx="251" cy="201" r="4" fill="#2a231cff" />
  <circle cx="251" cy="211" r="5" fill="#2a231cff" />
  <circle cx="251" cy="221" r="4" fill="#927b6aff" />
  <circle cx="252" cy="232" r="5" fill="#927b6aff" />
  <circle cx="252" cy="242" r="4" fill="#1f1a15ff" />
  <circle cx="251" cy="251" r="4" fill="#1f1a15ff" />
  <circle cx="251" cy="261" r="3" fill="#1f1a15ff" />
  <circle cx="251" cy="271" r="4" fill="#1f1a15ff" />
  <circle cx="252" cy="282" r="4" fill="#1f1a15ff" />
  <circle cx="252" cy="292" r="5" fill="#1f1a15ff" />
  <circle cx="251" cy="301" r="3" fill="#2a231cff" />
  <circle cx="252" cy="312" r="5" fill="#2a231cff" />
  <circle cx="252" cy="322" r="5" fill="#2a231cff" />
  <circle cx="251" cy="331" r="5" fill="#2a231cff" />
  <circle cx="251" cy="341" r="4" fill="#927b6aff" />
  <circle cx="251" cy="351" r="3" fill="#927b6aff" />
  <circle cx="252" cy="362" r="5" fill="#2a231cff" />
  <circle cx="252" cy="372" r="3" fill="#2a231cff" />
  <circle cx="252" cy="382" r="4" fill="#927b6aff" />
  <circle cx="251" cy="391" r="3" fill="#927b6aff" />
  <circle cx="252" cy="402" r="4" fill="#2a231cff" />
  <circle cx="251" cy="411" r="4" fill="#2a231cff" />
  <circle cx="252" cy="422" r="5" fill="#000000ff" />
  <circle cx="252" cy="432" r="4" fill="#000000ff" />
  <circle cx="252" cy="442" r="3" fill="#000000ff" />
  <circle cx="251" cy="451" r="5" fill="#000000ff" />
  <circle cx="252" cy="462" r="5" fill="#000000ff" />
  <circle cx="252" cy="472" r="5" fill="#000000ff" />
  <circle cx="261" cy="141" r="5" fill="#000000ff" />
  <circle cx="262" cy="152" r="3" fill="#000000ff" />
  <circle cx="261" cy="161" r="4" fill="#d9b599ff" />
  <circle cx="261" cy="171" r="5" fill="#d9b599ff" />
  <circle cx="262" cy="182" r="4" fill="#2a231cff" />
  <circle cx="261" cy="191" r="5" fill="#2a231cff" />
  <circle cx="262" cy="202" r="3" fill="#927b6aff" />
  <circle cx="261" cy="211" r="5" fill="#927b6aff" />
  <circle cx="262" cy="222" r="4" fill="#927b6aff" />
  <circle cx="261" cy="231" r="4" fill="#927b6aff" />
  <circle cx="262" cy="242" r="5" fill="#1f1a15ff" />
  <circle cx="262" cy="252" r="5" fill="#1f1a15ff" />
  <circle cx="261" cy="261" r="5" fill="#1f1a15ff" />
  <circle cx="262" cy="272" r="3" fill="#1f1a15ff" />
  <circle cx="262" cy="282" r="3" fill="#1f1a15ff" />
  <circle cx="261" cy="291" r="3" fill="#1f1a15ff" />
  <circle cx="262" cy="302" r="4" fill="#927b6aff" />
  <circle cx="262" cy="312" r="4" fill="#927b6aff" />
  <circle cx="261" cy="321" r="3" fill="#2a231cff" />
  <circle cx="261" cy="331" r="3" fill="#2a231cff" />
  <circle cx="261" cy="341" r="4" fill="#927b6aff" />
  <circle cx="261" cy="351" r="5" fill="#927b6aff" />
  <circle cx="261" cy="361" r="4" fill="#2a231cff" />
  <circle cx="262" cy="372" r="4" fill="#2a231cff" />
  <circle cx="262" cy="382" r="5" fill="#d9b599ff" />
  <circle cx="262" cy="392" r="5" fill="#d9b599ff" />
  <circle cx="262" cy="402" r="5" fill="#2a231cff" />
  <circle cx="261" cy="411" r="5" fill="#2a231cff" />
  <circle cx="261" cy="421" r="4" fill="#000000ff" />
  <circle cx="261" cy="431" r="3" fill="#000000ff" />
  <circle cx="272" cy="142" r="3" fill="#000000ff" />
  <circle cx="271" cy="151" r="5" fill="#000000ff" />
  <circle cx="272" cy="162" r="3" fill="#d9b599ff" />
  <circle cx="272" cy="172" r="3" fill="#d9b599ff" />
  <circle cx="272" cy="182" r="3" fill="#2a231cff" />
  <circle cx="271" cy="191" r="3" fill="#2a231cff" />
  <circle cx="271" cy="201" r="3" fill="#927b6aff" />
  <circle cx="272" cy="212" r="3" fill="#927b6aff" />
  <circle cx="271" cy="221" r="4" fill="#927b6aff" />
  <circle cx="272" cy="232" r="3" fill="#927b6aff" />
  <circle cx="272" cy="242" r="4" fill="#1f1a15ff" />
  <circle cx="272" cy="252" r="5" fill="#1f1a15ff" />
  <circle cx="272" cy="262" r="3" fill="#1f1a15ff" />
  <circle cx="271" cy="271" r="3" fill="#1f1a15ff" />
  <circle cx="272" cy="282" r="3" fill="#1f1a15ff" />
  <circle cx="272" cy="292" r="5" fill="#1f1a15ff" />
  <circle cx="272" cy="302" r="3" fill="#927b6aff" />
  <circle cx="272" cy="312" r="3" fill="#927b6aff" />
  <circle cx="271" cy="321" r="5" fill="#2a231cff" />
  <circle cx="272" cy="332" r="3" fill="#2a231cff" />
  <circle cx="272" cy="342" r="3" fill="#927b6aff" />
  <circle cx="272" cy="352" r="3" fill="#927b6aff" />
  <circle cx="271" cy="361" r="3" fill="#2a231cff" />
  <circle cx="271" cy="371" r="3" fill="#2a231cff" />
  <circle cx="272" cy="382" r="4" fill="#d9b599ff" />
  <circle cx="271" cy="391" r="4" fill="#d9b599ff" />
  <circle cx="272" cy="402" r="3" fill="#2a231cff" />
  <circle cx="272" cy="412" r="5" fill="#2a231cff" />
  <circle cx="272" cy="422" r="3" fill="#000000ff" />
  <circle cx="272" cy="432" r="4" fill="#000000ff" />
  <circle cx="281" cy="141" r="4" fill="#000000ff" />
  <circle cx="281" cy="151" r="5" fill="#000000ff" />
  <circle cx="281" cy="161" r="4" fill="#d9b599ff" />
  <circle cx="281" cy="171" r="4" fill="#d9b599ff" />
  <circle cx="282" cy="182" r="4" fill="#2a231cff" />
  <circle cx="282" cy="192" r="3" fill="#2a231cff" />
  <circle cx="282" cy="202" r="5" fill="#d9b599ff" />
  <circle cx="281" cy="211" r="3" fill="#d9b599ff" />
  <circle cx="281" cy="221" r="5" fill="#d9b599ff" />
  <circle cx="282" cy="232" r="5" fill="#d9b599ff" />
  <circle cx="282" cy="242" r="4" fill="#1f1a15ff" />
  <circle cx="282" cy="252" r="5" fill="#1f1a15ff" />
  <circle cx="281" cy="261" r="3" fill="#f6000bff" />
  <circle cx="282" cy="272" r="5" fill="#f6000bff" />
  <circle cx="282" cy="282" r="5" fill="#1f1a15ff" />
  <circle cx="282" cy="292" r="5" fill="#1f1a15ff" />
  <circle cx="281" cy="301" r="5" fill="#d9b599ff" />
  <circle cx="281" cy="311" r="5" fill="#d9b599ff" />
  <circle cx="282" cy="322" r="3" fill="#2a231cff" />
  <circle cx="282" cy="332" r="4" fill="#2a231cff" />
  <circle cx="281" cy="341" r="3" fill="#d9b599ff" />
  <circle cx="282" cy="352" r="5" fill="#d9b599ff" />
  <circle cx="282" cy="362" r="3" fill="#2a231cff" />
  <circle cx="281" cy="371" r="5" fill="#2a231cff" />
  <circle cx="281" cy="381" r="5" fill="#d9b599ff" />
  <circle cx="281" cy="391" r="3" fill="#d9b599ff" />
  <circle cx="281" cy="401" r="4" fill="#000000ff" />
  <circle cx="281" cy="411" r="5" fill="#000000ff" />
  <circle cx="292" cy="142" r="4" fill="#000000ff" />
  <circle cx="292" cy="152" r="3" fill="#000000ff" />
  <circle cx="291" cy="161" r="3" fill="#d9b599ff" />
  <circle cx="292" cy="172" r="5" fill="#d9b599ff" />
  <circle cx="292" cy="182" r="3" fill="#2a231cff" />
  <circle cx="292" cy="192" r="3" fill="#2a231cff" />
  <circle cx="292" cy="202" r="3" fill="#d9b599ff" />
  <circle cx="292" cy="212" r="5" fill="#d9b599ff" />
  <circle cx="292" cy="222" r="5" fill="#d9b599ff" />
  <circle cx="292" cy="232" r="3" fill="#d9b599ff" />
  <circle cx="291" cy="241" r="4" fill="#1f1a15ff" />
  <circle cx="291" cy="251" r="5" fill="#1f1a15ff" />
  <circle cx="292" cy="262" r="4" fill="#f6000bff" />
  <circle cx="291" cy="271" r="5" fill="#f6000bff" />
  <circle cx="291" cy="281" r="3" fill="#1f1a15ff" />
  <circle cx="291" cy="291" r="4" fill="#1f1a15ff" />
  <circle cx="292" cy="302" r="4" fill="#d9b599ff" />
  <circle cx="292" cy="312" r="5" fill="#d9b599ff" />
  <circle cx="291" cy="321" r="3" fill="#2a231cff" />
  <circle cx="291" cy="331" r="4" fill="#2a231cff" />
  <circle cx="292" cy="342" r="3" fill="#d9b599ff" />
  <circle cx="292" cy="352" r="5" fill="#d9b599ff" />
  <circle cx="292" cy="362" r="3" fill="#2a231cff" />
  <circle cx="292" cy="372" r="3" fill="#2a231cff" />
  <circle cx="292" cy="382" r="4" fill="#d9b599ff" />
  <circle cx="291" cy="391" r="3" fill="#d9b599ff" />
  <circle cx="292" cy="402" r="4" fill="#000000ff" />
  <circle cx="291" cy="411" r="3" fill="#000000ff" />
  <circle cx="301" cy="161" r="5" fill="#000000ff" />
  <circle cx="301" cy="171" r="4" fill="#000000ff" />
  <circle cx="302" cy="182" r="5" fill="#2a231cff" />
  <circle cx="301" cy="191" r="3" fill="#2a231cff" />
  <circle cx="302" cy="202" r="4" fill="#d9b599ff" />
  <circle cx="302" cy="212" r="5" fill="#d9b599ff" />
  <circle cx="301" cy="221" r="4" fill="#d9b599ff" />
  <circle cx="302" cy="232" r="5" fill="#d9b599ff" />
  <circle cx="301" cy="241" r="3" fill="#1f1a15ff" />
  <circle cx="302" cy="252" r="3" fill="#1f1a15ff" />
  <circle cx="302" cy="262" r="3" fill="#1f1a15ff" />
  <circle cx="302" cy="272" r="5" fill="#1f1a15ff" />
  <circle cx="302" cy="282" r="3" fill="#1f1a15ff" />
  <circle cx="301" cy="291" r="3" fill="#1f1a15ff" />
  <circle cx="301" cy="301" r="3" fill="#d9b599ff" />
  <circle cx="302" cy="312" r="3" fill="#d9b599ff" />
  <circle cx="301" cy="321" r="5" fill="#2a231cff" />
  <circle cx="301" cy="331" r="4" fill="#2a231cff" />
  <circle cx="301" cy="341" r="3" fill="#d9b599ff" />
  <circle cx="301" cy="351" r="4" fill="#d9b599ff" />
  <circle cx="301" cy="361" r="4" fill="#2a231cff" />
  <circle cx="301" cy="371" r="5" fill="#2a231cff" />
  <circle cx="302" cy="382" r="5" fill="#000000ff" />
  <circle cx="301" cy="391" r="3" fill="#000000ff" />
  <circle cx="312" cy="162" r="4" fill="#000000ff" />
  <circle cx="312" cy="172" r="3" fill="#000000ff" />
  <circle cx="311" cy="181" r="4" fill="#2a231cff" />
  <circle cx="312" cy="192" r="3" fill="#2a231cff" />
  <circle cx="311" cy="201" r="4" fill="#d9b599ff" />
  <circle cx="312" cy="212" r="3" fill="#d9b599ff" />
  <circle cx="311" cy="221" r="5" fill="#d9b599ff" />
  <circle cx="311" cy="231" r="5" fill="#d9b599ff" />
  <circle cx="312" cy="242" r="4" fill="#1f1a15ff" />
  <circle cx="311" cy="251" r="5" fill="#1f1a15ff" />
  <circle cx="311" cy="261" r="5" fill="#1f1a15ff" />
  <circle cx="312" cy="272" r="3" fill="#1f1a15ff" />
  <circle cx="312" cy="282" r="5" fill="#1f1a15ff" />
  <circle cx="312" cy="292" r="5" fill="#1f1a15ff" />
  <circle cx="311" cy="301" r="5" fill="#d9b599ff" />
  <circle cx="311" cy="311" r="3" fill="#d9b599ff" />
  <circle cx="312" cy="322" r="3" fill="#2a231cff" />
  <circle cx="312" cy="332" r="3" fill="#2a231cff" />
  <circle cx="311" cy="341" r="3" fill="#d9b599ff" />
  <circle cx="311" cy="351" r="3" fill="#d9b599ff" />
  <circle cx="312" cy="362" r="5" fill="#2a231cff" />
  <circle cx="311" cy="371" r="3" fill="#2a231cff" />
  <circle cx="311" cy="381" r="4" fill="#000000ff" />
  <circle cx="312" cy="392" r="5" fill="#000000ff" />
  <circle cx="321" cy="181" r="3" fill="#000000ff" />
  <circle cx="322" cy="192" r="3" fill="#000000ff" />
  <circle cx="322" cy="202" r="5" fill="#000000ff" />
  <circle cx="321" cy="211" r="5" fill="#000000ff" />
  <circle cx="321" cy="221" r="3" fill="#000000ff" />
  <circle cx="321" cy="231" r="4" fill="#000000ff" />
  <circle cx="322" cy="242" r="3" fill="#000000ff" />
  <circle cx="322" cy="252" r="4" fill="#000000ff" />
  <circle cx="321" cy="261" r="3" fill="#000000ff" />
  <circle cx="321" cy="271" r="4" fill="#000000ff" />
  <circle cx="322" cy="282" r="5" fill="#000000ff" />
  <circle cx="322" cy="292" r="5" fill="#000000ff" />
  <circle cx="321" cy="301" r="3" fill="#000000ff" />
  <circle cx="321" cy="311" r="4" fill="#000000ff" />
  <circle cx="322" cy="322" r="4" fill="#000000ff" />
  <circle cx="322" cy="332" r="4" fill="#000000ff" />
  <circle cx="321" cy="341" r="4" fill="#000000ff" />
  <circle cx="321" cy="351" r="5" fill="#000000ff" />
  <circle cx="322" cy="362" r="5" fill="#000000ff" />
  <circle cx="321" cy="371" r="3" fill="#000000ff" />
  <circle cx="331" cy="181" r="4" fill="#000000ff" />
  <circle cx="332" cy="192" r="5" fill="#000000ff" />
  <circle cx="331" cy="201" r="3" fill="#000000ff" />
  <circle cx="331" cy="211" r="3" fill="#000000ff" />
  <circle cx="332" cy="222" r="4" fill="#000000ff" />
  <circle cx="331" cy="231" r="3" fill="#000000ff" />
  <circle cx="332" cy="242" r="3" fill="#000000ff" />
  <circle cx="332" cy="252" r="5" fill="#000000ff" />
  <circle cx="332" cy="262" r="5" fill="#000000ff" />
  <circle cx="331" cy="271" r="4" fill="#000000ff" />
  <circle cx="331" cy="281" r="5" fill="#000000ff" />
  <circle cx="331" cy="291" r="3" fill="#000000ff" />
  <circle cx="332" cy="302" r="5" fill="#000000ff" />
  <circle cx="331" cy="311" r="5" fill="#000000ff" />
  <circle cx="332" cy="322" r="4" fill="#000000ff" />
  <circle cx="332" cy="332" r="3" fill="#000000ff" />
  <circle cx="331" cy="341" r="3" fill="#000000ff" />
  <circle cx="331" cy="351" r="3" fill="#000000ff" />
  <circle cx="332" cy="362" r="3" fill="#000000ff" />
  <circle cx="331" cy="371" r="4" fill="#000000ff" />
</svg>