<!--
     generated by pixelart/v1.1.0 on 2021-09-25 12:38:27 UTC
     
     spots_hidef with settings:
         {"spot":5,"spacing":5,"center":[-1,1],"radius":[3,6]}

-->

<svg version="1.1" width="475" height="475" xmlns="http://www.w3.org/2000/svg">
  <circle cx="122" cy="142" r="4" fill="#e0e0e0ff" />
  <circle cx="121" cy="151" r="4" fill="#e0e0e0ff" />
  <circle cx="122" cy="162" r="3" fill="#e0e0e0ff" />
  <circle cx="122" cy="172" r="4" fill="#e0e0e0ff" />
  <circle cx="122" cy="182" r="5" fill="#e0e0e0ff" />
  <circle cx="122" cy="192" r="5" fill="#e0e0e0ff" />
  <circle cx="122" cy="202" r="4" fill="#e0e0e0ff" />
  <circle cx="122" cy="212" r="5" fill="#e0e0e0ff" />
  <circle cx="122" cy="222" r="3" fill="#e0e0e0ff" />
  <circle cx="121" cy="231" r="5" fill="#e0e0e0ff" />
  <circle cx="122" cy="242" r="4" fill="#e0e0e0ff" />
  <circle cx="122" cy="252" r="4" fill="#e0e0e0ff" />
  <circle cx="122" cy="262" r="5" fill="#000000ff" />
  <circle cx="121" cy="271" r="4" fill="#000000ff" />
  <circle cx="122" cy="282" r="4" fill="#000000ff" />
  <circle cx="122" cy="292" r="3" fill="#000000ff" />
  <circle cx="131" cy="141" r="4" fill="#e0e0e0ff" />
  <circle cx="132" cy="152" r="3" fill="#e0e0e0ff" />
  <circle cx="132" cy="162" r="5" fill="#e0e0e0ff" />
  <circle cx="131" cy="171" r="5" fill="#e0e0e0ff" />
  <circle cx="131" cy="181" r="5" fill="#e0e0e0ff" />
  <circle cx="131" cy="191" r="4" fill="#e0e0e0ff" />
  <circle cx="131" cy="201" r="5" fill="#e0e0e0ff" />
  <circle cx="131" cy="211" r="5" fill="#e0e0e0ff" />
  <circle cx="131" cy="221" r="5" fill="#e0e0e0ff" />
  <circle cx="131" cy="231" r="5" fill="#e0e0e0ff" />
  <circle cx="131" cy="241" r="5" fill="#e0e0e0ff" />
  <circle cx="131" cy="251" r="5" fill="#e0e0e0ff" />
  <circle cx="131" cy="261" r="3" fill="#000000ff" />
  <circle cx="132" cy="272" r="4" fill="#000000ff" />
  <circle cx="131" cy="281" r="4" fill="#000000ff" />
  <circle cx="132" cy="292" r="5" fill="#000000ff" />
  <circle cx="141" cy="121" r="5" fill="#e0e0e0ff" />
  <circle cx="141" cy="131" r="4" fill="#e0e0e0ff" />
  <circle cx="141" cy="141" r="3" fill="#e0e0e0ff" />
  <circle cx="142" cy="152" r="5" fill="#e0e0e0ff" />
  <circle cx="141" cy="161" r="5" fill="#e0e0e0ff" />
  <circle cx="141" cy="171" r="5" fill="#e0e0e0ff" />
  <circle cx="141" cy="181" r="3" fill="#e0e0e0ff" />
  <circle cx="142" cy="192" r="3" fill="#e0e0e0ff" />
  <circle cx="141" cy="201" r="4" fill="#e0e0e0ff" />
  <circle cx="141" cy="211" r="5" fill="#e0e0e0ff" />
  <circle cx="141" cy="221" r="3" fill="#e0e0e0ff" />
  <circle cx="142" cy="232" r="3" fill="#e0e0e0ff" />
  <circle cx="142" cy="242" r="3" fill="#b2fbf9ff" />
  <circle cx="142" cy="252" r="5" fill="#b2fbf9ff" />
  <circle cx="142" cy="262" r="4" fill="#b2fbf9ff" />
  <circle cx="142" cy="272" r="5" fill="#b2fbf9ff" />
  <circle cx="141" cy="281" r="3" fill="#000000ff" />
  <circle cx="142" cy="292" r="3" fill="#000000ff" />
  <circle cx="141" cy="301" r="3" fill="#000000ff" />
  <circle cx="142" cy="312" r="4" fill="#000000ff" />
  <circle cx="142" cy="322" r="4" fill="#000000ff" />
  <circle cx="141" cy="331" r="4" fill="#000000ff" />
  <circle cx="142" cy="342" r="3" fill="#000000ff" />
  <circle cx="141" cy="351" r="3" fill="#000000ff" />
  <circle cx="141" cy="361" r="4" fill="#000000ff" />
  <circle cx="141" cy="371" r="5" fill="#000000ff" />
  <circle cx="152" cy="122" r="5" fill="#e0e0e0ff" />
  <circle cx="152" cy="132" r="5" fill="#e0e0e0ff" />
  <circle cx="151" cy="141" r="4" fill="#e0e0e0ff" />
  <circle cx="152" cy="152" r="4" fill="#e0e0e0ff" />
  <circle cx="151" cy="161" r="3" fill="#e0e0e0ff" />
  <circle cx="151" cy="171" r="3" fill="#e0e0e0ff" />
  <circle cx="152" cy="182" r="5" fill="#e0e0e0ff" />
  <circle cx="151" cy="191" r="3" fill="#e0e0e0ff" />
  <circle cx="151" cy="201" r="3" fill="#e0e0e0ff" />
  <circle cx="152" cy="212" r="4" fill="#e0e0e0ff" />
  <circle cx="152" cy="222" r="4" fill="#e0e0e0ff" />
  <circle cx="152" cy="232" r="5" fill="#e0e0e0ff" />
  <circle cx="151" cy="241" r="3" fill="#b2fbf9ff" />
  <circle cx="151" cy="251" r="3" fill="#b2fbf9ff" />
  <circle cx="152" cy="262" r="4" fill="#b2fbf9ff" />
  <circle cx="151" cy="271" r="4" fill="#b2fbf9ff" />
  <circle cx="151" cy="281" r="3" fill="#000000ff" />
  <circle cx="151" cy="291" r="3" fill="#000000ff" />
  <circle cx="151" cy="301" r="3" fill="#000000ff" />
  <circle cx="151" cy="311" r="3" fill="#000000ff" />
  <circle cx="151" cy="321" r="3" fill="#000000ff" />
  <circle cx="152" cy="332" r="4" fill="#000000ff" />
  <circle cx="152" cy="342" r="5" fill="#000000ff" />
  <circle cx="151" cy="351" r="5" fill="#000000ff" />
  <circle cx="152" cy="362" r="4" fill="#000000ff" />
  <circle cx="152" cy="372" r="4" fill="#000000ff" />
  <circle cx="162" cy="102" r="5" fill="#e0e0e0ff" />
  <circle cx="161" cy="111" r="5" fill="#e0e0e0ff" />
  <circle cx="162" cy="122" r="3" fill="#e0e0e0ff" />
  <circle cx="161" cy="131" r="4" fill="#e0e0e0ff" />
  <circle cx="162" cy="142" r="5" fill="#e0e0e0ff" />
  <circle cx="162" cy="152" r="5" fill="#e0e0e0ff" />
  <circle cx="162" cy="162" r="5" fill="#e0e0e0ff" />
  <circle cx="161" cy="171" r="3" fill="#e0e0e0ff" />
  <circle cx="161" cy="181" r="4" fill="#e0e0e0ff" />
  <circle cx="161" cy="191" r="3" fill="#e0e0e0ff" />
  <circle cx="161" cy="201" r="5" fill="#b2fbf9ff" />
  <circle cx="161" cy="211" r="4" fill="#b2fbf9ff" />
  <circle cx="162" cy="222" r="5" fill="#b2fbf9ff" />
  <circle cx="162" cy="232" r="5" fill="#b2fbf9ff" />
  <circle cx="161" cy="241" r="3" fill="#b2fbf9ff" />
  <circle cx="162" cy="252" r="4" fill="#b2fbf9ff" />
  <circle cx="161" cy="261" r="3" fill="#b2fbf9ff" />
  <circle cx="161" cy="271" r="3" fill="#b2fbf9ff" />
  <circle cx="161" cy="281" r="5" fill="#b2fbf9ff" />
  <circle cx="162" cy="292" r="3" fill="#b2fbf9ff" />
  <circle cx="162" cy="302" r="4" fill="#b2fbf9ff" />
  <circle cx="162" cy="312" r="4" fill="#b2fbf9ff" />
  <circle cx="162" cy="322" r="5" fill="#b2fbf9ff" />
  <circle cx="162" cy="332" r="3" fill="#b2fbf9ff" />
  <circle cx="161" cy="341" r="4" fill="#b2fbf9ff" />
  <circle cx="162" cy="352" r="3" fill="#b2fbf9ff" />
  <circle cx="162" cy="362" r="3" fill="#b2fbf9ff" />
  <circle cx="162" cy="372" r="3" fill="#b2fbf9ff" />
  <circle cx="161" cy="381" r="3" fill="#000000ff" />
  <circle cx="161" cy="391" r="5" fill="#000000ff" />
  <circle cx="162" cy="402" r="4" fill="#000000ff" />
  <circle cx="162" cy="412" r="5" fill="#000000ff" />
  <circle cx="162" cy="422" r="3" fill="#000000ff" />
  <circle cx="161" cy="431" r="5" fill="#000000ff" />
  <circle cx="161" cy="441" r="3" fill="#000000ff" />
  <circle cx="162" cy="452" r="3" fill="#000000ff" />
  <circle cx="161" cy="461" r="4" fill="#000000ff" />
  <circle cx="161" cy="471" r="4" fill="#000000ff" />
  <circle cx="172" cy="102" r="5" fill="#e0e0e0ff" />
  <circle cx="171" cy="111" r="5" fill="#e0e0e0ff" />
  <circle cx="172" cy="122" r="3" fill="#e0e0e0ff" />
  <circle cx="171" cy="131" r="5" fill="#e0e0e0ff" />
  <circle cx="172" cy="142" r="3" fill="#e0e0e0ff" />
  <circle cx="172" cy="152" r="5" fill="#e0e0e0ff" />
  <circle cx="172" cy="162" r="5" fill="#e0e0e0ff" />
  <circle cx="172" cy="172" r="3" fill="#e0e0e0ff" />
  <circle cx="171" cy="181" r="4" fill="#e0e0e0ff" />
  <circle cx="171" cy="191" r="3" fill="#e0e0e0ff" />
  <circle cx="172" cy="202" r="5" fill="#b2fbf9ff" />
  <circle cx="172" cy="212" r="4" fill="#b2fbf9ff" />
  <circle cx="172" cy="222" r="3" fill="#b2fbf9ff" />
  <circle cx="172" cy="232" r="3" fill="#b2fbf9ff" />
  <circle cx="172" cy="242" r="3" fill="#b2fbf9ff" />
  <circle cx="172" cy="252" r="3" fill="#b2fbf9ff" />
  <circle cx="172" cy="262" r="4" fill="#b2fbf9ff" />
  <circle cx="172" cy="272" r="4" fill="#b2fbf9ff" />
  <circle cx="172" cy="282" r="4" fill="#b2fbf9ff" />
  <circle cx="171" cy="291" r="3" fill="#b2fbf9ff" />
  <circle cx="172" cy="302" r="3" fill="#b2fbf9ff" />
  <circle cx="172" cy="312" r="5" fill="#b2fbf9ff" />
  <circle cx="172" cy="322" r="3" fill="#b2fbf9ff" />
  <circle cx="171" cy="331" r="4" fill="#b2fbf9ff" />
  <circle cx="171" cy="341" r="3" fill="#b2fbf9ff" />
  <circle cx="171" cy="351" r="4" fill="#b2fbf9ff" />
  <circle cx="171" cy="361" r="4" fill="#b2fbf9ff" />
  <circle cx="172" cy="372" r="5" fill="#b2fbf9ff" />
  <circle cx="172" cy="382" r="4" fill="#000000ff" />
  <circle cx="172" cy="392" r="5" fill="#000000ff" />
  <circle cx="172" cy="402" r="4" fill="#000000ff" />
  <circle cx="171" cy="411" r="4" fill="#000000ff" />
  <circle cx="172" cy="422" r="4" fill="#000000ff" />
  <circle cx="171" cy="431" r="4" fill="#000000ff" />
  <circle cx="171" cy="441" r="3" fill="#000000ff" />
  <circle cx="172" cy="452" r="4" fill="#000000ff" />
  <circle cx="172" cy="462" r="5" fill="#000000ff" />
  <circle cx="171" cy="471" r="5" fill="#000000ff" />
  <circle cx="181" cy="101" r="4" fill="#e0e0e0ff" />
  <circle cx="182" cy="112" r="4" fill="#e0e0e0ff" />
  <circle cx="181" cy="121" r="3" fill="#e0e0e0ff" />
  <circle cx="181" cy="131" r="4" fill="#e0e0e0ff" />
  <circle cx="181" cy="141" r="5" fill="#e0e0e0ff" />
  <circle cx="181" cy="151" r="4" fill="#e0e0e0ff" />
  <circle cx="182" cy="162" r="3" fill="#e0e0e0ff" />
  <circle cx="181" cy="171" r="3" fill="#e0e0e0ff" />
  <circle cx="181" cy="181" r="4" fill="#e0e0e0ff" />
  <circle cx="182" cy="192" r="4" fill="#e0e0e0ff" />
  <circle cx="182" cy="202" r="5" fill="#b2fbf9ff" />
  <circle cx="182" cy="212" r="3" fill="#b2fbf9ff" />
  <circle cx="182" cy="222" r="4" fill="#b2fbf9ff" />
  <circle cx="181" cy="231" r="4" fill="#b2fbf9ff" />
  <circle cx="182" cy="242" r="5" fill="#54a29fff" />
  <circle cx="181" cy="251" r="4" fill="#54a29fff" />
  <circle cx="182" cy="262" r="4" fill="#000000ff" />
  <circle cx="182" cy="272" r="3" fill="#000000ff" />
  <circle cx="181" cy="281" r="4" fill="#b2fbf9ff" />
  <circle cx="181" cy="291" r="3" fill="#b2fbf9ff" />
  <circle cx="182" cy="302" r="3" fill="#b2fbf9ff" />
  <circle cx="182" cy="312" r="3" fill="#b2fbf9ff" />
  <circle cx="181" cy="321" r="4" fill="#b2fbf9ff" />
  <circle cx="182" cy="332" r="5" fill="#b2fbf9ff" />
  <circle cx="181" cy="341" r="3" fill="#b2fbf9ff" />
  <circle cx="181" cy="351" r="4" fill="#b2fbf9ff" />
  <circle cx="182" cy="362" r="3" fill="#b2fbf9ff" />
  <circle cx="181" cy="371" r="3" fill="#b2fbf9ff" />
  <circle cx="181" cy="381" r="5" fill="#b2fbf9ff" />
  <circle cx="181" cy="391" r="5" fill="#b2fbf9ff" />
  <circle cx="181" cy="401" r="3" fill="#b2fbf9ff" />
  <circle cx="182" cy="412" r="3" fill="#b2fbf9ff" />
  <circle cx="181" cy="421" r="5" fill="#b2fbf9ff" />
  <circle cx="181" cy="431" r="3" fill="#b2fbf9ff" />
  <circle cx="182" cy="442" r="5" fill="#b2fbf9ff" />
  <circle cx="182" cy="452" r="5" fill="#b2fbf9ff" />
  <circle cx="181" cy="461" r="5" fill="#b2fbf9ff" />
  <circle cx="181" cy="471" r="4" fill="#b2fbf9ff" />
  <circle cx="191" cy="101" r="5" fill="#e0e0e0ff" />
  <circle cx="191" cy="111" r="3" fill="#e0e0e0ff" />
  <circle cx="192" cy="122" r="4" fill="#e0e0e0ff" />
  <circle cx="192" cy="132" r="3" fill="#e0e0e0ff" />
  <circle cx="192" cy="142" r="5" fill="#e0e0e0ff" />
  <circle cx="191" cy="151" r="3" fill="#e0e0e0ff" />
  <circle cx="192" cy="162" r="3" fill="#e0e0e0ff" />
  <circle cx="192" cy="172" r="4" fill="#e0e0e0ff" />
  <circle cx="191" cy="181" r="4" fill="#e0e0e0ff" />
  <circle cx="192" cy="192" r="4" fill="#e0e0e0ff" />
  <circle cx="192" cy="202" r="3" fill="#b2fbf9ff" />
  <circle cx="192" cy="212" r="4" fill="#b2fbf9ff" />
  <circle cx="191" cy="221" r="5" fill="#b2fbf9ff" />
  <circle cx="192" cy="232" r="4" fill="#b2fbf9ff" />
  <circle cx="191" cy="241" r="4" fill="#54a29fff" />
  <circle cx="192" cy="252" r="5" fill="#54a29fff" />
  <circle cx="192" cy="262" r="5" fill="#000000ff" />
  <circle cx="192" cy="272" r="3" fill="#000000ff" />
  <circle cx="191" cy="281" r="4" fill="#b2fbf9ff" />
  <circle cx="191" cy="291" r="5" fill="#b2fbf9ff" />
  <circle cx="192" cy="302" r="3" fill="#b2fbf9ff" />
  <circle cx="191" cy="311" r="3" fill="#b2fbf9ff" />
  <circle cx="192" cy="322" r="4" fill="#b2fbf9ff" />
  <circle cx="191" cy="331" r="5" fill="#b2fbf9ff" />
  <circle cx="192" cy="342" r="5" fill="#b2fbf9ff" />
  <circle cx="191" cy="351" r="3" fill="#b2fbf9ff" />
  <circle cx="192" cy="362" r="5" fill="#b2fbf9ff" />
  <circle cx="192" cy="372" r="5" fill="#b2fbf9ff" />
  <circle cx="192" cy="382" r="5" fill="#b2fbf9ff" />
  <circle cx="192" cy="392" r="5" fill="#b2fbf9ff" />
  <circle cx="192" cy="402" r="3" fill="#b2fbf9ff" />
  <circle cx="192" cy="412" r="4" fill="#b2fbf9ff" />
  <circle cx="191" cy="421" r="4" fill="#b2fbf9ff" />
  <circle cx="191" cy="431" r="5" fill="#b2fbf9ff" />
  <circle cx="191" cy="441" r="3" fill="#b2fbf9ff" />
  <circle cx="191" cy="451" r="3" fill="#b2fbf9ff" />
  <circle cx="191" cy="461" r="3" fill="#b2fbf9ff" />
  <circle cx="192" cy="472" r="3" fill="#b2fbf9ff" />
  <circle cx="202" cy="102" r="5" fill="#e0e0e0ff" />
  <circle cx="202" cy="112" r="4" fill="#e0e0e0ff" />
  <circle cx="201" cy="121" r="3" fill="#e0e0e0ff" />
  <circle cx="202" cy="132" r="5" fill="#e0e0e0ff" />
  <circle cx="202" cy="142" r="5" fill="#e0e0e0ff" />
  <circle cx="202" cy="152" r="4" fill="#e0e0e0ff" />
  <circle cx="202" cy="162" r="4" fill="#e0e0e0ff" />
  <circle cx="201" cy="171" r="5" fill="#e0e0e0ff" />
  <circle cx="202" cy="182" r="4" fill="#e0e0e0ff" />
  <circle cx="201" cy="191" r="4" fill="#e0e0e0ff" />
  <circle cx="202" cy="202" r="4" fill="#b2fbf9ff" />
  <circle cx="201" cy="211" r="3" fill="#b2fbf9ff" />
  <circle cx="201" cy="221" r="5" fill="#b2fbf9ff" />
  <circle cx="201" cy="231" r="3" fill="#b2fbf9ff" />
  <circle cx="201" cy="241" r="5" fill="#000000ff" />
  <circle cx="201" cy="251" r="4" fill="#000000ff" />
  <circle cx="202" cy="262" r="5" fill="#54a29fff" />
  <circle cx="201" cy="271" r="4" fill="#54a29fff" />
  <circle cx="202" cy="282" r="3" fill="#b2fbf9ff" />
  <circle cx="202" cy="292" r="4" fill="#b2fbf9ff" />
  <circle cx="201" cy="301" r="5" fill="#b2fbf9ff" />
  <circle cx="202" cy="312" r="3" fill="#b2fbf9ff" />
  <circle cx="201" cy="321" r="3" fill="#b2fbf9ff" />
  <circle cx="201" cy="331" r="3" fill="#b2fbf9ff" />
  <circle cx="202" cy="342" r="4" fill="#b2fbf9ff" />
  <circle cx="201" cy="351" r="3" fill="#b2fbf9ff" />
  <circle cx="201" cy="361" r="5" fill="#b2fbf9ff" />
  <circle cx="201" cy="371" r="3" fill="#b2fbf9ff" />
  <circle cx="201" cy="381" r="5" fill="#b2fbf9ff" />
  <circle cx="201" cy="391" r="3" fill="#b2fbf9ff" />
  <circle cx="202" cy="402" r="5" fill="#000000ff" />
  <circle cx="201" cy="411" r="5" fill="#000000ff" />
  <circle cx="201" cy="421" r="5" fill="#b2fbf9ff" />
  <circle cx="201" cy="431" r="5" fill="#b2fbf9ff" />
  <circle cx="202" cy="442" r="5" fill="#b2fbf9ff" />
  <circle cx="201" cy="451" r="4" fill="#b2fbf9ff" />
  <circle cx="202" cy="462" r="5" fill="#b2fbf9ff" />
  <circle cx="201" cy="471" r="4" fill="#b2fbf9ff" />
  <circle cx="211" cy="101" r="5" fill="#e0e0e0ff" />
  <circle cx="211" cy="111" r="3" fill="#e0e0e0ff" />
  <circle cx="211" cy="121" r="5" fill="#e0e0e0ff" />
  <circle cx="211" cy="131" r="4" fill="#e0e0e0ff" />
  <circle cx="212" cy="142" r="3" fill="#e0e0e0ff" />
  <circle cx="212" cy="152" r="5" fill="#e0e0e0ff" />
  <circle cx="211" cy="161" r="4" fill="#e0e0e0ff" />
  <circle cx="212" cy="172" r="3" fill="#e0e0e0ff" />
  <circle cx="212" cy="182" r="4" fill="#e0e0e0ff" />
  <circle cx="212" cy="192" r="4" fill="#e0e0e0ff" />
  <circle cx="211" cy="201" r="5" fill="#b2fbf9ff" />
  <circle cx="212" cy="212" r="5" fill="#b2fbf9ff" />
  <circle cx="212" cy="222" r="5" fill="#b2fbf9ff" />
  <circle cx="212" cy="232" r="4" fill="#b2fbf9ff" />
  <circle cx="211" cy="241" r="4" fill="#000000ff" />
  <circle cx="212" cy="252" r="5" fill="#000000ff" />
  <circle cx="212" cy="262" r="3" fill="#54a29fff" />
  <circle cx="212" cy="272" r="5" fill="#54a29fff" />
  <circle cx="211" cy="281" r="4" fill="#b2fbf9ff" />
  <circle cx="212" cy="292" r="4" fill="#b2fbf9ff" />
  <circle cx="212" cy="302" r="3" fill="#b2fbf9ff" />
  <circle cx="211" cy="311" r="5" fill="#b2fbf9ff" />
  <circle cx="212" cy="322" r="5" fill="#b2fbf9ff" />
  <circle cx="212" cy="332" r="3" fill="#b2fbf9ff" />
  <circle cx="212" cy="342" r="3" fill="#b2fbf9ff" />
  <circle cx="211" cy="351" r="3" fill="#b2fbf9ff" />
  <circle cx="212" cy="362" r="4" fill="#b2fbf9ff" />
  <circle cx="212" cy="372" r="3" fill="#b2fbf9ff" />
  <circle cx="212" cy="382" r="3" fill="#b2fbf9ff" />
  <circle cx="211" cy="391" r="3" fill="#b2fbf9ff" />
  <circle cx="211" cy="401" r="5" fill="#000000ff" />
  <circle cx="212" cy="412" r="4" fill="#000000ff" />
  <circle cx="212" cy="422" r="3" fill="#b2fbf9ff" />
  <circle cx="211" cy="431" r="5" fill="#b2fbf9ff" />
  <circle cx="212" cy="442" r="3" fill="#b2fbf9ff" />
  <circle cx="212" cy="452" r="4" fill="#b2fbf9ff" />
  <circle cx="212" cy="462" r="3" fill="#b2fbf9ff" />
  <circle cx="211" cy="471" r="3" fill="#b2fbf9ff" />
  <circle cx="221" cy="101" r="5" fill="#e0e0e0ff" />
  <circle cx="222" cy="112" r="5" fill="#e0e0e0ff" />
  <circle cx="222" cy="122" r="3" fill="#e0e0e0ff" />
  <circle cx="221" cy="131" r="3" fill="#e0e0e0ff" />
  <circle cx="222" cy="142" r="5" fill="#e0e0e0ff" />
  <circle cx="221" cy="151" r="5" fill="#e0e0e0ff" />
  <circle cx="221" cy="161" r="4" fill="#e0e0e0ff" />
  <circle cx="221" cy="171" r="3" fill="#e0e0e0ff" />
  <circle cx="222" cy="182" r="5" fill="#e0e0e0ff" />
  <circle cx="221" cy="191" r="4" fill="#e0e0e0ff" />
  <circle cx="221" cy="201" r="3" fill="#b2fbf9ff" />
  <circle cx="222" cy="212" r="5" fill="#b2fbf9ff" />
  <circle cx="222" cy="222" r="5" fill="#b2fbf9ff" />
  <circle cx="221" cy="231" r="5" fill="#b2fbf9ff" />
  <circle cx="221" cy="241" r="4" fill="#b2fbf9ff" />
  <circle cx="222" cy="252" r="4" fill="#b2fbf9ff" />
  <circle cx="221" cy="261" r="3" fill="#b2fbf9ff" />
  <circle cx="222" cy="272" r="4" fill="#b2fbf9ff" />
  <circle cx="222" cy="282" r="3" fill="#b2fbf9ff" />
  <circle cx="221" cy="291" r="5" fill="#b2fbf9ff" />
  <circle cx="221" cy="301" r="4" fill="#b2fbf9ff" />
  <circle cx="221" cy="311" r="3" fill="#b2fbf9ff" />
  <circle cx="221" cy="321" r="4" fill="#b2fbf9ff" />
  <circle cx="221" cy="331" r="5" fill="#b2fbf9ff" />
  <circle cx="221" cy="341" r="5" fill="#b2fbf9ff" />
  <circle cx="222" cy="352" r="4" fill="#b2fbf9ff" />
  <circle cx="221" cy="361" r="4" fill="#000000ff" />
  <circle cx="222" cy="372" r="5" fill="#000000ff" />
  <circle cx="222" cy="382" r="5" fill="#b2fbf9ff" />
  <circle cx="222" cy="392" r="3" fill="#b2fbf9ff" />
  <circle cx="222" cy="402" r="3" fill="#b2fbf9ff" />
  <circle cx="222" cy="412" r="3" fill="#b2fbf9ff" />
  <circle cx="221" cy="421" r="4" fill="#000000ff" />
  <circle cx="221" cy="431" r="3" fill="#000000ff" />
  <circle cx="221" cy="441" r="3" fill="#b2fbf9ff" />
  <circle cx="221" cy="451" r="3" fill="#b2fbf9ff" />
  <circle cx="221" cy="461" r="4" fill="#b2fbf9ff" />
  <circle cx="221" cy="471" r="5" fill="#b2fbf9ff" />
  <circle cx="232" cy="102" r="4" fill="#e0e0e0ff" />
  <circle cx="232" cy="112" r="3" fill="#e0e0e0ff" />
  <circle cx="231" cy="121" r="5" fill="#e0e0e0ff" />
  <circle cx="231" cy="131" r="5" fill="#e0e0e0ff" />
  <circle cx="232" cy="142" r="3" fill="#e0e0e0ff" />
  <circle cx="231" cy="151" r="4" fill="#e0e0e0ff" />
  <circle cx="231" cy="161" r="4" fill="#e0e0e0ff" />
  <circle cx="231" cy="171" r="5" fill="#e0e0e0ff" />
  <circle cx="231" cy="181" r="3" fill="#e0e0e0ff" />
  <circle cx="231" cy="191" r="3" fill="#e0e0e0ff" />
  <circle cx="231" cy="201" r="3" fill="#b2fbf9ff" />
  <circle cx="231" cy="211" r="4" fill="#b2fbf9ff" />
  <circle cx="231" cy="221" r="4" fill="#b2fbf9ff" />
  <circle cx="232" cy="232" r="3" fill="#b2fbf9ff" />
  <circle cx="231" cy="241" r="5" fill="#b2fbf9ff" />
  <circle cx="231" cy="251" r="3" fill="#b2fbf9ff" />
  <circle cx="232" cy="262" r="3" fill="#b2fbf9ff" />
  <circle cx="231" cy="271" r="5" fill="#b2fbf9ff" />
  <circle cx="231" cy="281" r="5" fill="#b2fbf9ff" />
  <circle cx="231" cy="291" r="4" fill="#b2fbf9ff" />
  <circle cx="232" cy="302" r="3" fill="#b2fbf9ff" />
  <circle cx="232" cy="312" r="4" fill="#b2fbf9ff" />
  <circle cx="232" cy="322" r="4" fill="#b2fbf9ff" />
  <circle cx="232" cy="332" r="5" fill="#b2fbf9ff" />
  <circle cx="232" cy="342" r="3" fill="#b2fbf9ff" />
  <circle cx="232" cy="352" r="5" fill="#b2fbf9ff" />
  <circle cx="232" cy="362" r="4" fill="#000000ff" />
  <circle cx="232" cy="372" r="3" fill="#000000ff" />
  <circle cx="232" cy="382" r="5" fill="#b2fbf9ff" />
  <circle cx="232" cy="392" r="4" fill="#b2fbf9ff" />
  <circle cx="232" cy="402" r="3" fill="#b2fbf9ff" />
  <circle cx="232" cy="412" r="4" fill="#b2fbf9ff" />
  <circle cx="231" cy="421" r="3" fill="#000000ff" />
  <circle cx="231" cy="431" r="4" fill="#000000ff" />
  <circle cx="231" cy="441" r="5" fill="#b2fbf9ff" />
  <circle cx="232" cy="452" r="4" fill="#b2fbf9ff" />
  <circle cx="231" cy="461" r="5" fill="#b2fbf9ff" />
  <circle cx="231" cy="471" r="5" fill="#b2fbf9ff" />
  <circle cx="241" cy="101" r="4" fill="#e0e0e0ff" />
  <circle cx="242" cy="112" r="5" fill="#e0e0e0ff" />
  <circle cx="242" cy="122" r="3" fill="#e0e0e0ff" />
  <circle cx="242" cy="132" r="3" fill="#e0e0e0ff" />
  <circle cx="241" cy="141" r="5" fill="#e0e0e0ff" />
  <circle cx="242" cy="152" r="4" fill="#e0e0e0ff" />
  <circle cx="241" cy="161" r="5" fill="#e0e0e0ff" />
  <circle cx="241" cy="171" r="4" fill="#e0e0e0ff" />
  <circle cx="241" cy="181" r="4" fill="#b2fbf9ff" />
  <circle cx="241" cy="191" r="5" fill="#b2fbf9ff" />
  <circle cx="241" cy="201" r="5" fill="#b2fbf9ff" />
  <circle cx="241" cy="211" r="3" fill="#b2fbf9ff" />
  <circle cx="241" cy="221" r="5" fill="#b2fbf9ff" />
  <circle cx="242" cy="232" r="5" fill="#b2fbf9ff" />
  <circle cx="241" cy="241" r="5" fill="#b2fbf9ff" />
  <circle cx="241" cy="251" r="3" fill="#b2fbf9ff" />
  <circle cx="241" cy="261" r="5" fill="#b2fbf9ff" />
  <circle cx="241" cy="271" r="5" fill="#b2fbf9ff" />
  <circle cx="242" cy="282" r="3" fill="#b2fbf9ff" />
  <circle cx="242" cy="292" r="4" fill="#b2fbf9ff" />
  <circle cx="242" cy="302" r="4" fill="#7cd3cfff" />
  <circle cx="242" cy="312" r="5" fill="#7cd3cfff" />
  <circle cx="242" cy="322" r="4" fill="#7cd3cfff" />
  <circle cx="242" cy="332" r="5" fill="#7cd3cfff" />
  <circle cx="241" cy="341" r="3" fill="#b2fbf9ff" />
  <circle cx="242" cy="352" r="4" fill="#b2fbf9ff" />
  <circle cx="241" cy="361" r="4" fill="#000000ff" />
  <circle cx="241" cy="371" r="4" fill="#000000ff" />
  <circle cx="242" cy="382" r="3" fill="#b2fbf9ff" />
  <circle cx="241" cy="391" r="3" fill="#b2fbf9ff" />
  <circle cx="242" cy="402" r="4" fill="#b2fbf9ff" />
  <circle cx="242" cy="412" r="4" fill="#b2fbf9ff" />
  <circle cx="242" cy="422" r="4" fill="#000000ff" />
  <circle cx="242" cy="432" r="4" fill="#000000ff" />
  <circle cx="241" cy="441" r="5" fill="#000000ff" />
  <circle cx="241" cy="451" r="3" fill="#000000ff" />
  <circle cx="242" cy="462" r="4" fill="#000000ff" />
  <circle cx="242" cy="472" r="3" fill="#000000ff" />
  <circle cx="252" cy="102" r="5" fill="#e0e0e0ff" />
  <circle cx="251" cy="111" r="5" fill="#e0e0e0ff" />
  <circle cx="252" cy="122" r="4" fill="#e0e0e0ff" />
  <circle cx="252" cy="132" r="3" fill="#e0e0e0ff" />
  <circle cx="251" cy="141" r="3" fill="#e0e0e0ff" />
  <circle cx="251" cy="151" r="4" fill="#e0e0e0ff" />
  <circle cx="252" cy="162" r="3" fill="#e0e0e0ff" />
  <circle cx="251" cy="171" r="4" fill="#e0e0e0ff" />
  <circle cx="252" cy="182" r="3" fill="#b2fbf9ff" />
  <circle cx="252" cy="192" r="3" fill="#b2fbf9ff" />
  <circle cx="252" cy="202" r="4" fill="#b2fbf9ff" />
  <circle cx="252" cy="212" r="3" fill="#b2fbf9ff" />
  <circle cx="252" cy="222" r="3" fill="#b2fbf9ff" />
  <circle cx="252" cy="232" r="3" fill="#b2fbf9ff" />
  <circle cx="252" cy="242" r="4" fill="#b2fbf9ff" />
  <circle cx="251" cy="251" r="4" fill="#b2fbf9ff" />
  <circle cx="251" cy="261" r="3" fill="#b2fbf9ff" />
  <circle cx="252" cy="272" r="5" fill="#b2fbf9ff" />
  <circle cx="251" cy="281" r="4" fill="#b2fbf9ff" />
  <circle cx="252" cy="292" r="4" fill="#b2fbf9ff" />
  <circle cx="251" cy="301" r="4" fill="#7cd3cfff" />
  <circle cx="252" cy="312" r="5" fill="#7cd3cfff" />
  <circle cx="252" cy="322" r="3" fill="#7cd3cfff" />
  <circle cx="251" cy="331" r="3" fill="#7cd3cfff" />
  <circle cx="251" cy="341" r="5" fill="#b2fbf9ff" />
  <circle cx="252" cy="352" r="3" fill="#b2fbf9ff" />
  <circle cx="251" cy="361" r="4" fill="#000000ff" />
  <circle cx="252" cy="372" r="3" fill="#000000ff" />
  <circle cx="251" cy="381" r="3" fill="#b2fbf9ff" />
  <circle cx="251" cy="391" r="3" fill="#b2fbf9ff" />
  <circle cx="252" cy="402" r="3" fill="#b2fbf9ff" />
  <circle cx="252" cy="412" r="4" fill="#b2fbf9ff" />
  <circle cx="251" cy="421" r="5" fill="#000000ff" />
  <circle cx="251" cy="431" r="5" fill="#000000ff" />
  <circle cx="252" cy="442" r="3" fill="#000000ff" />
  <circle cx="251" cy="451" r="4" fill="#000000ff" />
  <circle cx="251" cy="461" r="4" fill="#000000ff" />
  <circle cx="252" cy="472" r="3" fill="#000000ff" />
  <circle cx="262" cy="102" r="4" fill="#e0e0e0ff" />
  <circle cx="262" cy="112" r="3" fill="#e0e0e0ff" />
  <circle cx="261" cy="121" r="5" fill="#e0e0e0ff" />
  <circle cx="261" cy="131" r="3" fill="#e0e0e0ff" />
  <circle cx="262" cy="142" r="4" fill="#e0e0e0ff" />
  <circle cx="261" cy="151" r="4" fill="#e0e0e0ff" />
  <circle cx="261" cy="161" r="4" fill="#e0e0e0ff" />
  <circle cx="261" cy="171" r="5" fill="#e0e0e0ff" />
  <circle cx="261" cy="181" r="3" fill="#b2fbf9ff" />
  <circle cx="262" cy="192" r="3" fill="#b2fbf9ff" />
  <circle cx="262" cy="202" r="5" fill="#b2fbf9ff" />
  <circle cx="262" cy="212" r="5" fill="#b2fbf9ff" />
  <circle cx="261" cy="221" r="5" fill="#b2fbf9ff" />
  <circle cx="261" cy="231" r="5" fill="#b2fbf9ff" />
  <circle cx="262" cy="242" r="5" fill="#b2fbf9ff" />
  <circle cx="261" cy="251" r="5" fill="#b2fbf9ff" />
  <circle cx="261" cy="261" r="3" fill="#b2fbf9ff" />
  <circle cx="261" cy="271" r="5" fill="#b2fbf9ff" />
  <circle cx="262" cy="282" r="3" fill="#b2fbf9ff" />
  <circle cx="262" cy="292" r="5" fill="#b2fbf9ff" />
  <circle cx="262" cy="302" r="5" fill="#b2fbf9ff" />
  <circle cx="262" cy="312" r="4" fill="#b2fbf9ff" />
  <circle cx="261" cy="321" r="4" fill="#b2fbf9ff" />
  <circle cx="262" cy="332" r="4" fill="#b2fbf9ff" />
  <circle cx="262" cy="342" r="3" fill="#b2fbf9ff" />
  <circle cx="262" cy="352" r="5" fill="#b2fbf9ff" />
  <circle cx="262" cy="362" r="5" fill="#000000ff" />
  <circle cx="262" cy="372" r="4" fill="#000000ff" />
  <circle cx="261" cy="381" r="3" fill="#b2fbf9ff" />
  <circle cx="262" cy="392" r="5" fill="#b2fbf9ff" />
  <circle cx="262" cy="402" r="4" fill="#b2fbf9ff" />
  <circle cx="261" cy="411" r="3" fill="#b2fbf9ff" />
  <circle cx="262" cy="422" r="5" fill="#000000ff" />
  <circle cx="261" cy="431" r="4" fill="#000000ff" />
  <circle cx="271" cy="101" r="5" fill="#e0e0e0ff" />
  <circle cx="272" cy="112" r="4" fill="#e0e0e0ff" />
  <circle cx="271" cy="121" r="4" fill="#e0e0e0ff" />
  <circle cx="271" cy="131" r="5" fill="#e0e0e0ff" />
  <circle cx="271" cy="141" r="4" fill="#e0e0e0ff" />
  <circle cx="272" cy="152" r="4" fill="#e0e0e0ff" />
  <circle cx="271" cy="161" r="3" fill="#e0e0e0ff" />
  <circle cx="271" cy="171" r="4" fill="#e0e0e0ff" />
  <circle cx="272" cy="182" r="3" fill="#b2fbf9ff" />
  <circle cx="272" cy="192" r="4" fill="#b2fbf9ff" />
  <circle cx="271" cy="201" r="4" fill="#b2fbf9ff" />
  <circle cx="271" cy="211" r="5" fill="#b2fbf9ff" />
  <circle cx="271" cy="221" r="3" fill="#b2fbf9ff" />
  <circle cx="272" cy="232" r="3" fill="#b2fbf9ff" />
  <circle cx="271" cy="241" r="5" fill="#b2fbf9ff" />
  <circle cx="272" cy="252" r="3" fill="#b2fbf9ff" />
  <circle cx="272" cy="262" r="3" fill="#b2fbf9ff" />
  <circle cx="271" cy="271" r="3" fill="#b2fbf9ff" />
  <circle cx="271" cy="281" r="4" fill="#b2fbf9ff" />
  <circle cx="271" cy="291" r="3" fill="#b2fbf9ff" />
  <circle cx="272" cy="302" r="3" fill="#b2fbf9ff" />
  <circle cx="271" cy="311" r="4" fill="#b2fbf9ff" />
  <circle cx="271" cy="321" r="3" fill="#b2fbf9ff" />
  <circle cx="271" cy="331" r="5" fill="#b2fbf9ff" />
  <circle cx="271" cy="341" r="5" fill="#b2fbf9ff" />
  <circle cx="271" cy="351" r="3" fill="#b2fbf9ff" />
  <circle cx="271" cy="361" r="3" fill="#000000ff" />
  <circle cx="272" cy="372" r="5" fill="#000000ff" />
  <circle cx="272" cy="382" r="5" fill="#b2fbf9ff" />
  <circle cx="272" cy="392" r="4" fill="#b2fbf9ff" />
  <circle cx="271" cy="401" r="4" fill="#b2fbf9ff" />
  <circle cx="272" cy="412" r="3" fill="#b2fbf9ff" />
  <circle cx="271" cy="421" r="4" fill="#000000ff" />
  <circle cx="272" cy="432" r="5" fill="#000000ff" />
  <circle cx="281" cy="101" r="5" fill="#e0e0e0ff" />
  <circle cx="282" cy="112" r="5" fill="#e0e0e0ff" />
  <circle cx="282" cy="122" r="5" fill="#e0e0e0ff" />
  <circle cx="281" cy="131" r="5" fill="#e0e0e0ff" />
  <circle cx="282" cy="142" r="4" fill="#e0e0e0ff" />
  <circle cx="281" cy="151" r="5" fill="#e0e0e0ff" />
  <circle cx="282" cy="162" r="4" fill="#e0e0e0ff" />
  <circle cx="281" cy="171" r="3" fill="#e0e0e0ff" />
  <circle cx="281" cy="181" r="4" fill="#b2fbf9ff" />
  <circle cx="282" cy="192" r="5" fill="#b2fbf9ff" />
  <circle cx="281" cy="201" r="5" fill="#b2fbf9ff" />
  <circle cx="282" cy="212" r="4" fill="#b2fbf9ff" />
  <circle cx="281" cy="221" r="5" fill="#b2fbf9ff" />
  <circle cx="282" cy="232" r="4" fill="#b2fbf9ff" />
  <circle cx="282" cy="242" r="5" fill="#54a29fff" />
  <circle cx="281" cy="251" r="4" fill="#54a29fff" />
  <circle cx="282" cy="262" r="4" fill="#000000ff" />
  <circle cx="282" cy="272" r="4" fill="#000000ff" />
  <circle cx="281" cy="281" r="4" fill="#b2fbf9ff" />
  <circle cx="281" cy="291" r="5" fill="#b2fbf9ff" />
  <circle cx="282" cy="302" r="3" fill="#b2fbf9ff" />
  <circle cx="281" cy="311" r="3" fill="#b2fbf9ff" />
  <circle cx="281" cy="321" r="5" fill="#b2fbf9ff" />
  <circle cx="282" cy="332" r="4" fill="#b2fbf9ff" />
  <circle cx="281" cy="341" r="5" fill="#b2fbf9ff" />
  <circle cx="282" cy="352" r="3" fill="#b2fbf9ff" />
  <circle cx="281" cy="361" r="3" fill="#b2fbf9ff" />
  <circle cx="282" cy="372" r="4" fill="#b2fbf9ff" />
  <circle cx="282" cy="382" r="4" fill="#b2fbf9ff" />
  <circle cx="282" cy="392" r="4" fill="#b2fbf9ff" />
  <circle cx="281" cy="401" r="3" fill="#000000ff" />
  <circle cx="281" cy="411" r="3" fill="#000000ff" />
  <circle cx="292" cy="102" r="4" fill="#e0e0e0ff" />
  <circle cx="291" cy="111" r="3" fill="#e0e0e0ff" />
  <circle cx="292" cy="122" r="3" fill="#e0e0e0ff" />
  <circle cx="292" cy="132" r="4" fill="#e0e0e0ff" />
  <circle cx="291" cy="141" r="4" fill="#e0e0e0ff" />
  <circle cx="292" cy="152" r="5" fill="#e0e0e0ff" />
  <circle cx="291" cy="161" r="5" fill="#e0e0e0ff" />
  <circle cx="292" cy="172" r="3" fill="#e0e0e0ff" />
  <circle cx="292" cy="182" r="5" fill="#b2fbf9ff" />
  <circle cx="291" cy="191" r="5" fill="#b2fbf9ff" />
  <circle cx="291" cy="201" r="4" fill="#b2fbf9ff" />
  <circle cx="292" cy="212" r="3" fill="#b2fbf9ff" />
  <circle cx="291" cy="221" r="4" fill="#b2fbf9ff" />
  <circle cx="292" cy="232" r="5" fill="#b2fbf9ff" />
  <circle cx="292" cy="242" r="3" fill="#54a29fff" />
  <circle cx="292" cy="252" r="5" fill="#54a29fff" />
  <circle cx="291" cy="261" r="5" fill="#000000ff" />
  <circle cx="292" cy="272" r="3" fill="#000000ff" />
  <circle cx="292" cy="282" r="5" fill="#b2fbf9ff" />
  <circle cx="292" cy="292" r="4" fill="#b2fbf9ff" />
  <circle cx="292" cy="302" r="4" fill="#b2fbf9ff" />
  <circle cx="291" cy="311" r="4" fill="#b2fbf9ff" />
  <circle cx="292" cy="322" r="3" fill="#b2fbf9ff" />
  <circle cx="292" cy="332" r="3" fill="#b2fbf9ff" />
  <circle cx="291" cy="341" r="5" fill="#b2fbf9ff" />
  <circle cx="291" cy="351" r="3" fill="#b2fbf9ff" />
  <circle cx="291" cy="361" r="3" fill="#b2fbf9ff" />
  <circle cx="291" cy="371" r="3" fill="#b2fbf9ff" />
  <circle cx="292" cy="382" r="5" fill="#b2fbf9ff" />
  <circle cx="291" cy="391" r="5" fill="#b2fbf9ff" />
  <circle cx="292" cy="402" r="4" fill="#000000ff" />
  <circle cx="292" cy="412" r="4" fill="#000000ff" />
  <circle cx="301" cy="101" r="5" fill="#e0e0e0ff" />
  <circle cx="302" cy="112" r="4" fill="#e0e0e0ff" />
  <circle cx="302" cy="122" r="4" fill="#e0e0e0ff" />
  <circle cx="302" cy="132" r="3" fill="#e0e0e0ff" />
  <circle cx="301" cy="141" r="5" fill="#e0e0e0ff" />
  <circle cx="302" cy="152" r="4" fill="#e0e0e0ff" />
  <circle cx="302" cy="162" r="3" fill="#e0e0e0ff" />
  <circle cx="302" cy="172" r="4" fill="#e0e0e0ff" />
  <circle cx="302" cy="182" r="4" fill="#b2fbf9ff" />
  <circle cx="301" cy="191" r="3" fill="#b2fbf9ff" />
  <circle cx="301" cy="201" r="4" fill="#b2fbf9ff" />
  <circle cx="301" cy="211" r="5" fill="#b2fbf9ff" />
  <circle cx="302" cy="222" r="3" fill="#b2fbf9ff" />
  <circle cx="301" cy="231" r="5" fill="#b2fbf9ff" />
  <circle cx="301" cy="241" r="3" fill="#000000ff" />
  <circle cx="302" cy="252" r="4" fill="#000000ff" />
  <circle cx="302" cy="262" r="4" fill="#54a29fff" />
  <circle cx="302" cy="272" r="3" fill="#54a29fff" />
  <circle cx="302" cy="282" r="5" fill="#b2fbf9ff" />
  <circle cx="302" cy="292" r="4" fill="#b2fbf9ff" />
  <circle cx="302" cy="302" r="3" fill="#b2fbf9ff" />
  <circle cx="301" cy="311" r="3" fill="#b2fbf9ff" />
  <circle cx="302" cy="322" r="4" fill="#b2fbf9ff" />
  <circle cx="302" cy="332" r="4" fill="#b2fbf9ff" />
  <circle cx="301" cy="341" r="4" fill="#b2fbf9ff" />
  <circle cx="302" cy="352" r="3" fill="#b2fbf9ff" />
  <circle cx="302" cy="362" r="3" fill="#b2fbf9ff" />
  <circle cx="302" cy="372" r="3" fill="#b2fbf9ff" />
  <circle cx="301" cy="381" r="4" fill="#000000ff" />
  <circle cx="301" cy="391" r="5" fill="#000000ff" />
  <circle cx="312" cy="102" r="5" fill="#e0e0e0ff" />
  <circle cx="311" cy="111" r="5" fill="#e0e0e0ff" />
  <circle cx="312" cy="122" r="5" fill="#e0e0e0ff" />
  <circle cx="312" cy="132" r="5" fill="#e0e0e0ff" />
  <circle cx="311" cy="141" r="4" fill="#e0e0e0ff" />
  <circle cx="311" cy="151" r="3" fill="#e0e0e0ff" />
  <circle cx="311" cy="161" r="4" fill="#e0e0e0ff" />
  <circle cx="312" cy="172" r="4" fill="#e0e0e0ff" />
  <circle cx="311" cy="181" r="4" fill="#b2fbf9ff" />
  <circle cx="312" cy="192" r="4" fill="#b2fbf9ff" />
  <circle cx="312" cy="202" r="3" fill="#b2fbf9ff" />
  <circle cx="311" cy="211" r="5" fill="#b2fbf9ff" />
  <circle cx="311" cy="221" r="3" fill="#b2fbf9ff" />
  <circle cx="312" cy="232" r="4" fill="#b2fbf9ff" />
  <circle cx="312" cy="242" r="3" fill="#000000ff" />
  <circle cx="312" cy="252" r="5" fill="#000000ff" />
  <circle cx="312" cy="262" r="4" fill="#54a29fff" />
  <circle cx="311" cy="271" r="3" fill="#54a29fff" />
  <circle cx="312" cy="282" r="5" fill="#b2fbf9ff" />
  <circle cx="312" cy="292" r="4" fill="#b2fbf9ff" />
  <circle cx="312" cy="302" r="4" fill="#b2fbf9ff" />
  <circle cx="311" cy="311" r="4" fill="#b2fbf9ff" />
  <circle cx="311" cy="321" r="5" fill="#b2fbf9ff" />
  <circle cx="311" cy="331" r="5" fill="#b2fbf9ff" />
  <circle cx="311" cy="341" r="4" fill="#b2fbf9ff" />
  <circle cx="312" cy="352" r="3" fill="#b2fbf9ff" />
  <circle cx="312" cy="362" r="3" fill="#b2fbf9ff" />
  <circle cx="312" cy="372" r="4" fill="#b2fbf9ff" />
  <circle cx="311" cy="381" r="5" fill="#000000ff" />
  <circle cx="312" cy="392" r="5" fill="#000000ff" />
  <circle cx="321" cy="121" r="4" fill="#e0e0e0ff" />
  <circle cx="321" cy="131" r="4" fill="#e0e0e0ff" />
  <circle cx="321" cy="141" r="3" fill="#e0e0e0ff" />
  <circle cx="322" cy="152" r="3" fill="#e0e0e0ff" />
  <circle cx="322" cy="162" r="4" fill="#e0e0e0ff" />
  <circle cx="321" cy="171" r="3" fill="#e0e0e0ff" />
  <circle cx="322" cy="182" r="5" fill="#e0e0e0ff" />
  <circle cx="321" cy="191" r="4" fill="#e0e0e0ff" />
  <circle cx="321" cy="201" r="5" fill="#e0e0e0ff" />
  <circle cx="322" cy="212" r="5" fill="#e0e0e0ff" />
  <circle cx="321" cy="221" r="3" fill="#000000ff" />
  <circle cx="321" cy="231" r="4" fill="#000000ff" />
  <circle cx="321" cy="241" r="5" fill="#000000ff" />
  <circle cx="321" cy="251" r="5" fill="#000000ff" />
  <circle cx="321" cy="261" r="4" fill="#000000ff" />
  <circle cx="322" cy="272" r="5" fill="#000000ff" />
  <circle cx="321" cy="281" r="5" fill="#000000ff" />
  <circle cx="321" cy="291" r="5" fill="#000000ff" />
  <circle cx="321" cy="301" r="3" fill="#000000ff" />
  <circle cx="321" cy="311" r="3" fill="#000000ff" />
  <circle cx="322" cy="322" r="5" fill="#000000ff" />
  <circle cx="322" cy="332" r="5" fill="#000000ff" />
  <circle cx="321" cy="341" r="4" fill="#000000ff" />
  <circle cx="322" cy="352" r="3" fill="#000000ff" />
  <circle cx="322" cy="362" r="3" fill="#000000ff" />
  <circle cx="321" cy="371" r="4" fill="#000000ff" />
  <circle cx="332" cy="122" r="4" fill="#e0e0e0ff" />
  <circle cx="332" cy="132" r="5" fill="#e0e0e0ff" />
  <circle cx="331" cy="141" r="3" fill="#e0e0e0ff" />
  <circle cx="332" cy="152" r="3" fill="#e0e0e0ff" />
  <circle cx="332" cy="162" r="4" fill="#e0e0e0ff" />
  <circle cx="332" cy="172" r="3" fill="#e0e0e0ff" />
  <circle cx="332" cy="182" r="3" fill="#e0e0e0ff" />
  <circle cx="331" cy="191" r="5" fill="#e0e0e0ff" />
  <circle cx="331" cy="201" r="3" fill="#e0e0e0ff" />
  <circle cx="331" cy="211" r="4" fill="#e0e0e0ff" />
  <circle cx="331" cy="221" r="5" fill="#000000ff" />
  <circle cx="331" cy="231" r="4" fill="#000000ff" />
  <circle cx="331" cy="241" r="3" fill="#000000ff" />
  <circle cx="331" cy="251" r="4" fill="#000000ff" />
  <circle cx="331" cy="261" r="3" fill="#000000ff" />
  <circle cx="332" cy="272" r="5" fill="#000000ff" />
  <circle cx="331" cy="281" r="3" fill="#000000ff" />
  <circle cx="332" cy="292" r="4" fill="#000000ff" />
  <circle cx="331" cy="301" r="4" fill="#000000ff" />
  <circle cx="332" cy="312" r="3" fill="#000000ff" />
  <circle cx="332" cy="322" r="5" fill="#000000ff" />
  <circle cx="332" cy="332" r="3" fill="#000000ff" />
  <circle cx="332" cy="342" r="4" fill="#000000ff" />
  <circle cx="332" cy="352" r="4" fill="#000000ff" />
  <circle cx="332" cy="362" r="3" fill="#000000ff" />
  <circle cx="331" cy="371" r="3" fill="#000000ff" />
  <circle cx="341" cy="141" r="3" fill="#e0e0e0ff" />
  <circle cx="342" cy="152" r="4" fill="#e0e0e0ff" />
  <circle cx="342" cy="162" r="5" fill="#e0e0e0ff" />
  <circle cx="341" cy="171" r="5" fill="#e0e0e0ff" />
  <circle cx="341" cy="181" r="4" fill="#e0e0e0ff" />
  <circle cx="342" cy="192" r="3" fill="#e0e0e0ff" />
  <circle cx="341" cy="201" r="5" fill="#e0e0e0ff" />
  <circle cx="342" cy="212" r="4" fill="#e0e0e0ff" />
  <circle cx="341" cy="221" r="5" fill="#e0e0e0ff" />
  <circle cx="341" cy="231" r="3" fill="#e0e0e0ff" />
  <circle cx="351" cy="141" r="5" fill="#e0e0e0ff" />
  <circle cx="351" cy="151" r="4" fill="#e0e0e0ff" />
  <circle cx="351" cy="161" r="3" fill="#e0e0e0ff" />
  <circle cx="352" cy="172" r="4" fill="#e0e0e0ff" />
  <circle cx="352" cy="182" r="5" fill="#e0e0e0ff" />
  <circle cx="352" cy="192" r="3" fill="#e0e0e0ff" />
  <circle cx="352" cy="202" r="3" fill="#e0e0e0ff" />
  <circle cx="351" cy="211" r="5" fill="#e0e0e0ff" />
  <circle cx="352" cy="222" r="5" fill="#e0e0e0ff" />
  <circle cx="352" cy="232" r="5" fill="#e0e0e0ff" />
</svg>