<!--
     generated by pixelart/v1.1.0 on 2021-09-25 12:38:27 UTC
     
     spots_hidef with settings:
         {"spot":5,"spacing":5,"center":[-1,1],"radius":[3,6]}

-->

<svg version="1.1" width="235" height="235" xmlns="http://www.w3.org/2000/svg">
  <circle cx="61" cy="71" r="5" fill="#e0e0e0ff" />
  <circle cx="61" cy="81" r="3" fill="#e0e0e0ff" />
  <circle cx="61" cy="91" r="5" fill="#e0e0e0ff" />
  <circle cx="61" cy="101" r="5" fill="#e0e0e0ff" />
  <circle cx="61" cy="111" r="3" fill="#e0e0e0ff" />
  <circle cx="62" cy="122" r="5" fill="#e0e0e0ff" />
  <circle cx="62" cy="132" r="5" fill="#000000ff" />
  <circle cx="62" cy="142" r="3" fill="#000000ff" />
  <circle cx="72" cy="62" r="5" fill="#e0e0e0ff" />
  <circle cx="71" cy="71" r="4" fill="#e0e0e0ff" />
  <circle cx="71" cy="81" r="3" fill="#e0e0e0ff" />
  <circle cx="71" cy="91" r="4" fill="#e0e0e0ff" />
  <circle cx="71" cy="101" r="5" fill="#e0e0e0ff" />
  <circle cx="72" cy="112" r="3" fill="#e0e0e0ff" />
  <circle cx="71" cy="121" r="3" fill="#b2fbf9ff" />
  <circle cx="72" cy="132" r="5" fill="#b2fbf9ff" />
  <circle cx="72" cy="142" r="5" fill="#000000ff" />
  <circle cx="71" cy="151" r="4" fill="#000000ff" />
  <circle cx="72" cy="162" r="3" fill="#000000ff" />
  <circle cx="72" cy="172" r="4" fill="#000000ff" />
  <circle cx="72" cy="182" r="4" fill="#000000ff" />
  <circle cx="81" cy="51" r="4" fill="#e0e0e0ff" />
  <circle cx="81" cy="61" r="5" fill="#e0e0e0ff" />
  <circle cx="81" cy="71" r="4" fill="#e0e0e0ff" />
  <circle cx="82" cy="82" r="3" fill="#e0e0e0ff" />
  <circle cx="82" cy="92" r="5" fill="#e0e0e0ff" />
  <circle cx="81" cy="101" r="3" fill="#b2fbf9ff" />
  <circle cx="81" cy="111" r="4" fill="#b2fbf9ff" />
  <circle cx="81" cy="121" r="3" fill="#b2fbf9ff" />
  <circle cx="82" cy="132" r="5" fill="#b2fbf9ff" />
  <circle cx="82" cy="142" r="4" fill="#b2fbf9ff" />
  <circle cx="81" cy="151" r="5" fill="#b2fbf9ff" />
  <circle cx="81" cy="161" r="4" fill="#b2fbf9ff" />
  <circle cx="81" cy="171" r="5" fill="#b2fbf9ff" />
  <circle cx="82" cy="182" r="4" fill="#b2fbf9ff" />
  <circle cx="81" cy="191" r="3" fill="#000000ff" />
  <circle cx="81" cy="201" r="3" fill="#000000ff" />
  <circle cx="82" cy="212" r="4" fill="#000000ff" />
  <circle cx="82" cy="222" r="3" fill="#000000ff" />
  <circle cx="82" cy="232" r="4" fill="#000000ff" />
  <circle cx="92" cy="52" r="4" fill="#e0e0e0ff" />
  <circle cx="92" cy="62" r="4" fill="#e0e0e0ff" />
  <circle cx="92" cy="72" r="4" fill="#e0e0e0ff" />
  <circle cx="91" cy="81" r="5" fill="#e0e0e0ff" />
  <circle cx="92" cy="92" r="3" fill="#e0e0e0ff" />
  <circle cx="91" cy="101" r="3" fill="#b2fbf9ff" />
  <circle cx="92" cy="112" r="5" fill="#b2fbf9ff" />
  <circle cx="92" cy="122" r="4" fill="#54a29fff" />
  <circle cx="91" cy="131" r="5" fill="#000000ff" />
  <circle cx="91" cy="141" r="4" fill="#b2fbf9ff" />
  <circle cx="92" cy="152" r="4" fill="#b2fbf9ff" />
  <circle cx="92" cy="162" r="4" fill="#b2fbf9ff" />
  <circle cx="91" cy="171" r="4" fill="#b2fbf9ff" />
  <circle cx="92" cy="182" r="3" fill="#b2fbf9ff" />
  <circle cx="92" cy="192" r="4" fill="#b2fbf9ff" />
  <circle cx="91" cy="201" r="5" fill="#b2fbf9ff" />
  <circle cx="92" cy="212" r="5" fill="#b2fbf9ff" />
  <circle cx="91" cy="221" r="5" fill="#b2fbf9ff" />
  <circle cx="91" cy="231" r="3" fill="#b2fbf9ff" />
  <circle cx="102" cy="52" r="4" fill="#e0e0e0ff" />
  <circle cx="101" cy="61" r="4" fill="#e0e0e0ff" />
  <circle cx="102" cy="72" r="4" fill="#e0e0e0ff" />
  <circle cx="101" cy="81" r="4" fill="#e0e0e0ff" />
  <circle cx="102" cy="92" r="4" fill="#e0e0e0ff" />
  <circle cx="101" cy="101" r="3" fill="#b2fbf9ff" />
  <circle cx="102" cy="112" r="4" fill="#b2fbf9ff" />
  <circle cx="101" cy="121" r="4" fill="#000000ff" />
  <circle cx="101" cy="131" r="3" fill="#54a29fff" />
  <circle cx="101" cy="141" r="5" fill="#b2fbf9ff" />
  <circle cx="102" cy="152" r="4" fill="#b2fbf9ff" />
  <circle cx="101" cy="161" r="4" fill="#b2fbf9ff" />
  <circle cx="101" cy="171" r="5" fill="#b2fbf9ff" />
  <circle cx="101" cy="181" r="4" fill="#b2fbf9ff" />
  <circle cx="102" cy="192" r="3" fill="#b2fbf9ff" />
  <circle cx="102" cy="202" r="5" fill="#000000ff" />
  <circle cx="102" cy="212" r="4" fill="#b2fbf9ff" />
  <circle cx="101" cy="221" r="5" fill="#b2fbf9ff" />
  <circle cx="102" cy="232" r="3" fill="#b2fbf9ff" />
  <circle cx="112" cy="52" r="5" fill="#e0e0e0ff" />
  <circle cx="112" cy="62" r="5" fill="#e0e0e0ff" />
  <circle cx="111" cy="71" r="5" fill="#e0e0e0ff" />
  <circle cx="112" cy="82" r="4" fill="#e0e0e0ff" />
  <circle cx="111" cy="91" r="4" fill="#e0e0e0ff" />
  <circle cx="112" cy="102" r="3" fill="#b2fbf9ff" />
  <circle cx="111" cy="111" r="3" fill="#b2fbf9ff" />
  <circle cx="112" cy="122" r="5" fill="#b2fbf9ff" />
  <circle cx="112" cy="132" r="4" fill="#b2fbf9ff" />
  <circle cx="111" cy="141" r="3" fill="#b2fbf9ff" />
  <circle cx="112" cy="152" r="4" fill="#b2fbf9ff" />
  <circle cx="112" cy="162" r="4" fill="#b2fbf9ff" />
  <circle cx="112" cy="172" r="3" fill="#b2fbf9ff" />
  <circle cx="111" cy="181" r="4" fill="#000000ff" />
  <circle cx="111" cy="191" r="5" fill="#b2fbf9ff" />
  <circle cx="112" cy="202" r="4" fill="#b2fbf9ff" />
  <circle cx="112" cy="212" r="4" fill="#000000ff" />
  <circle cx="111" cy="221" r="4" fill="#b2fbf9ff" />
  <circle cx="112" cy="232" r="5" fill="#b2fbf9ff" />
  <circle cx="121" cy="51" r="4" fill="#e0e0e0ff" />
  <circle cx="121" cy="61" r="3" fill="#e0e0e0ff" />
  <circle cx="122" cy="72" r="5" fill="#e0e0e0ff" />
  <circle cx="121" cy="81" r="4" fill="#e0e0e0ff" />
  <circle cx="121" cy="91" r="4" fill="#b2fbf9ff" />
  <circle cx="122" cy="102" r="5" fill="#b2fbf9ff" />
  <circle cx="122" cy="112" r="3" fill="#b2fbf9ff" />
  <circle cx="121" cy="121" r="3" fill="#b2fbf9ff" />
  <circle cx="121" cy="131" r="5" fill="#b2fbf9ff" />
  <circle cx="121" cy="141" r="3" fill="#b2fbf9ff" />
  <circle cx="122" cy="152" r="4" fill="#7cd3cfff" />
  <circle cx="121" cy="161" r="5" fill="#7cd3cfff" />
  <circle cx="122" cy="172" r="3" fill="#b2fbf9ff" />
  <circle cx="121" cy="181" r="3" fill="#000000ff" />
  <circle cx="122" cy="192" r="4" fill="#b2fbf9ff" />
  <circle cx="122" cy="202" r="3" fill="#b2fbf9ff" />
  <circle cx="122" cy="212" r="3" fill="#000000ff" />
  <circle cx="121" cy="221" r="4" fill="#000000ff" />
  <circle cx="122" cy="232" r="3" fill="#000000ff" />
  <circle cx="131" cy="51" r="5" fill="#e0e0e0ff" />
  <circle cx="131" cy="61" r="3" fill="#e0e0e0ff" />
  <circle cx="132" cy="72" r="3" fill="#e0e0e0ff" />
  <circle cx="132" cy="82" r="4" fill="#e0e0e0ff" />
  <circle cx="132" cy="92" r="3" fill="#b2fbf9ff" />
  <circle cx="131" cy="101" r="4" fill="#b2fbf9ff" />
  <circle cx="131" cy="111" r="3" fill="#b2fbf9ff" />
  <circle cx="132" cy="122" r="5" fill="#b2fbf9ff" />
  <circle cx="132" cy="132" r="4" fill="#b2fbf9ff" />
  <circle cx="131" cy="141" r="3" fill="#b2fbf9ff" />
  <circle cx="132" cy="152" r="3" fill="#b2fbf9ff" />
  <circle cx="132" cy="162" r="4" fill="#b2fbf9ff" />
  <circle cx="132" cy="172" r="5" fill="#b2fbf9ff" />
  <circle cx="131" cy="181" r="5" fill="#000000ff" />
  <circle cx="131" cy="191" r="3" fill="#b2fbf9ff" />
  <circle cx="132" cy="202" r="3" fill="#b2fbf9ff" />
  <circle cx="132" cy="212" r="4" fill="#000000ff" />
  <circle cx="141" cy="51" r="4" fill="#e0e0e0ff" />
  <circle cx="142" cy="62" r="5" fill="#e0e0e0ff" />
  <circle cx="142" cy="72" r="4" fill="#e0e0e0ff" />
  <circle cx="142" cy="82" r="3" fill="#e0e0e0ff" />
  <circle cx="142" cy="92" r="3" fill="#b2fbf9ff" />
  <circle cx="142" cy="102" r="5" fill="#b2fbf9ff" />
  <circle cx="141" cy="111" r="4" fill="#b2fbf9ff" />
  <circle cx="142" cy="122" r="3" fill="#54a29fff" />
  <circle cx="141" cy="131" r="5" fill="#000000ff" />
  <circle cx="142" cy="142" r="4" fill="#b2fbf9ff" />
  <circle cx="141" cy="151" r="3" fill="#b2fbf9ff" />
  <circle cx="142" cy="162" r="5" fill="#b2fbf9ff" />
  <circle cx="142" cy="172" r="3" fill="#b2fbf9ff" />
  <circle cx="141" cy="181" r="3" fill="#b2fbf9ff" />
  <circle cx="142" cy="192" r="4" fill="#b2fbf9ff" />
  <circle cx="142" cy="202" r="5" fill="#000000ff" />
  <circle cx="151" cy="51" r="3" fill="#e0e0e0ff" />
  <circle cx="151" cy="61" r="3" fill="#e0e0e0ff" />
  <circle cx="151" cy="71" r="4" fill="#e0e0e0ff" />
  <circle cx="151" cy="81" r="5" fill="#e0e0e0ff" />
  <circle cx="151" cy="91" r="3" fill="#b2fbf9ff" />
  <circle cx="151" cy="101" r="4" fill="#b2fbf9ff" />
  <circle cx="152" cy="112" r="3" fill="#b2fbf9ff" />
  <circle cx="151" cy="121" r="4" fill="#000000ff" />
  <circle cx="151" cy="131" r="5" fill="#54a29fff" />
  <circle cx="151" cy="141" r="5" fill="#b2fbf9ff" />
  <circle cx="152" cy="152" r="5" fill="#b2fbf9ff" />
  <circle cx="151" cy="161" r="5" fill="#b2fbf9ff" />
  <circle cx="152" cy="172" r="3" fill="#b2fbf9ff" />
  <circle cx="151" cy="181" r="5" fill="#b2fbf9ff" />
  <circle cx="151" cy="191" r="3" fill="#000000ff" />
  <circle cx="162" cy="62" r="4" fill="#e0e0e0ff" />
  <circle cx="161" cy="71" r="5" fill="#e0e0e0ff" />
  <circle cx="161" cy="81" r="5" fill="#e0e0e0ff" />
  <circle cx="162" cy="92" r="3" fill="#e0e0e0ff" />
  <circle cx="162" cy="102" r="5" fill="#e0e0e0ff" />
  <circle cx="161" cy="111" r="5" fill="#000000ff" />
  <circle cx="162" cy="122" r="3" fill="#000000ff" />
  <circle cx="162" cy="132" r="3" fill="#000000ff" />
  <circle cx="162" cy="142" r="3" fill="#000000ff" />
  <circle cx="162" cy="152" r="3" fill="#000000ff" />
  <circle cx="162" cy="162" r="3" fill="#000000ff" />
  <circle cx="162" cy="172" r="5" fill="#000000ff" />
  <circle cx="162" cy="182" r="3" fill="#000000ff" />
  <circle cx="171" cy="71" r="3" fill="#e0e0e0ff" />
  <circle cx="172" cy="82" r="3" fill="#e0e0e0ff" />
  <circle cx="171" cy="91" r="3" fill="#e0e0e0ff" />
  <circle cx="172" cy="102" r="4" fill="#e0e0e0ff" />
  <circle cx="172" cy="112" r="5" fill="#e0e0e0ff" />
</svg>