<!--
     generated by pixelart/v1.1.0 on 2021-09-25 12:38:28 UTC
     
     spots_hidef with settings:
         {"spot":5,"spacing":5,"center":[-1,1],"radius":[3,6]}

-->

<svg version="1.1" width="235" height="235" xmlns="http://www.w3.org/2000/svg">
  <circle cx="42" cy="32" r="4" fill="#f84d54ff" />
  <circle cx="42" cy="42" r="5" fill="#f84d54ff" />
  <circle cx="41" cy="81" r="3" fill="#f84d54ff" />
  <circle cx="42" cy="92" r="4" fill="#f84d54ff" />
  <circle cx="51" cy="21" r="5" fill="#f84d54ff" />
  <circle cx="51" cy="31" r="4" fill="#f84d54ff" />
  <circle cx="51" cy="41" r="3" fill="#fcc5d0ff" />
  <circle cx="52" cy="52" r="5" fill="#f84d54ff" />
  <circle cx="52" cy="72" r="3" fill="#f84d54ff" />
  <circle cx="51" cy="81" r="3" fill="#fcc5d0ff" />
  <circle cx="51" cy="91" r="4" fill="#f84d54ff" />
  <circle cx="52" cy="102" r="3" fill="#f84d54ff" />
  <circle cx="51" cy="111" r="5" fill="#fff869ff" />
  <circle cx="51" cy="121" r="4" fill="#fff869ff" />
  <circle cx="51" cy="131" r="4" fill="#fff869ff" />
  <circle cx="52" cy="142" r="4" fill="#fff869ff" />
  <circle cx="51" cy="151" r="4" fill="#fff869ff" />
  <circle cx="52" cy="162" r="4" fill="#fff869ff" />
  <circle cx="51" cy="171" r="5" fill="#fff869ff" />
  <circle cx="52" cy="182" r="4" fill="#fff869ff" />
  <circle cx="52" cy="192" r="5" fill="#fff869ff" />
  <circle cx="51" cy="201" r="5" fill="#fff869ff" />
  <circle cx="52" cy="212" r="5" fill="#fff869ff" />
  <circle cx="52" cy="222" r="4" fill="#fff869ff" />
  <circle cx="52" cy="232" r="4" fill="#fff869ff" />
  <circle cx="62" cy="22" r="5" fill="#f84d54ff" />
  <circle cx="62" cy="32" r="3" fill="#fcc5d0ff" />
  <circle cx="61" cy="41" r="4" fill="#fcc5d0ff" />
  <circle cx="62" cy="52" r="4" fill="#fcc5d0ff" />
  <circle cx="61" cy="61" r="5" fill="#f84d54ff" />
  <circle cx="62" cy="72" r="5" fill="#fcc5d0ff" />
  <circle cx="61" cy="81" r="3" fill="#fcc5d0ff" />
  <circle cx="61" cy="91" r="5" fill="#fcc5d0ff" />
  <circle cx="62" cy="102" r="4" fill="#f84d54ff" />
  <circle cx="62" cy="112" r="3" fill="#fff869ff" />
  <circle cx="61" cy="121" r="4" fill="#fff869ff" />
  <circle cx="61" cy="131" r="4" fill="#fff869ff" />
  <circle cx="61" cy="141" r="5" fill="#fff869ff" />
  <circle cx="62" cy="152" r="3" fill="#fff869ff" />
  <circle cx="61" cy="161" r="3" fill="#fff869ff" />
  <circle cx="61" cy="171" r="4" fill="#fff869ff" />
  <circle cx="62" cy="182" r="5" fill="#fff869ff" />
  <circle cx="62" cy="192" r="4" fill="#fff869ff" />
  <circle cx="62" cy="202" r="4" fill="#fff869ff" />
  <circle cx="61" cy="211" r="5" fill="#fff869ff" />
  <circle cx="62" cy="222" r="3" fill="#fff869ff" />
  <circle cx="61" cy="231" r="4" fill="#fff869ff" />
  <circle cx="72" cy="32" r="3" fill="#f84d54ff" />
  <circle cx="72" cy="42" r="4" fill="#fcc5d0ff" />
  <circle cx="71" cy="51" r="5" fill="#f84d54ff" />
  <circle cx="72" cy="62" r="4" fill="#ffff53ff" />
  <circle cx="72" cy="72" r="4" fill="#f84d54ff" />
  <circle cx="72" cy="82" r="5" fill="#fcc5d0ff" />
  <circle cx="72" cy="92" r="3" fill="#f84d54ff" />
  <circle cx="72" cy="102" r="4" fill="#fff869ff" />
  <circle cx="72" cy="112" r="4" fill="#fff869ff" />
  <circle cx="71" cy="121" r="4" fill="#fff869ff" />
  <circle cx="71" cy="131" r="4" fill="#fff869ff" />
  <circle cx="71" cy="141" r="3" fill="#fff869ff" />
  <circle cx="71" cy="151" r="3" fill="#fff869ff" />
  <circle cx="72" cy="162" r="3" fill="#fff869ff" />
  <circle cx="71" cy="171" r="5" fill="#fff869ff" />
  <circle cx="71" cy="181" r="4" fill="#fff869ff" />
  <circle cx="71" cy="191" r="3" fill="#fff869ff" />
  <circle cx="72" cy="202" r="3" fill="#fff869ff" />
  <circle cx="72" cy="212" r="3" fill="#fff869ff" />
  <circle cx="71" cy="221" r="5" fill="#fff869ff" />
  <circle cx="71" cy="231" r="4" fill="#fff869ff" />
  <circle cx="81" cy="41" r="5" fill="#f84d54ff" />
  <circle cx="82" cy="52" r="5" fill="#ffff0fff" />
  <circle cx="81" cy="61" r="4" fill="#ffff53ff" />
  <circle cx="81" cy="71" r="4" fill="#ffff53ff" />
  <circle cx="82" cy="82" r="4" fill="#f84d54ff" />
  <circle cx="81" cy="91" r="5" fill="#fff869ff" />
  <circle cx="81" cy="101" r="5" fill="#fff869ff" />
  <circle cx="81" cy="111" r="5" fill="#e0e0e0ff" />
  <circle cx="82" cy="122" r="5" fill="#e0e0e0ff" />
  <circle cx="82" cy="132" r="3" fill="#e0e0e0ff" />
  <circle cx="82" cy="142" r="3" fill="#e0e0e0ff" />
  <circle cx="82" cy="152" r="3" fill="#e0e0e0ff" />
  <circle cx="82" cy="162" r="5" fill="#e0e0e0ff" />
  <circle cx="81" cy="171" r="3" fill="#e0e0e0ff" />
  <circle cx="81" cy="181" r="5" fill="#e0e0e0ff" />
  <circle cx="81" cy="191" r="3" fill="#000000ff" />
  <circle cx="82" cy="202" r="3" fill="#000000ff" />
  <circle cx="82" cy="212" r="4" fill="#000000ff" />
  <circle cx="81" cy="221" r="5" fill="#000000ff" />
  <circle cx="82" cy="232" r="3" fill="#000000ff" />
  <circle cx="91" cy="31" r="4" fill="#f84d54ff" />
  <circle cx="91" cy="41" r="3" fill="#fcc5d0ff" />
  <circle cx="91" cy="51" r="3" fill="#f84d54ff" />
  <circle cx="92" cy="62" r="4" fill="#ffff0fff" />
  <circle cx="91" cy="71" r="4" fill="#f84d54ff" />
  <circle cx="91" cy="81" r="3" fill="#fcc5d0ff" />
  <circle cx="92" cy="92" r="5" fill="#f84d54ff" />
  <circle cx="91" cy="101" r="5" fill="#e0e0e0ff" />
  <circle cx="92" cy="112" r="4" fill="#e0e0e0ff" />
  <circle cx="91" cy="121" r="4" fill="#000000ff" />
  <circle cx="91" cy="131" r="4" fill="#000000ff" />
  <circle cx="92" cy="142" r="3" fill="#e0e0e0ff" />
  <circle cx="91" cy="151" r="4" fill="#e0e0e0ff" />
  <circle cx="92" cy="162" r="3" fill="#e0e0e0ff" />
  <circle cx="91" cy="171" r="5" fill="#e0e0e0ff" />
  <circle cx="92" cy="182" r="4" fill="#e0e0e0ff" />
  <circle cx="92" cy="192" r="3" fill="#e0e0e0ff" />
  <circle cx="92" cy="202" r="3" fill="#e0e0e0ff" />
  <circle cx="92" cy="212" r="3" fill="#e0e0e0ff" />
  <circle cx="92" cy="222" r="3" fill="#e0e0e0ff" />
  <circle cx="91" cy="231" r="3" fill="#e0e0e0ff" />
  <circle cx="102" cy="22" r="5" fill="#f84d54ff" />
  <circle cx="102" cy="32" r="3" fill="#fcc5d0ff" />
  <circle cx="102" cy="42" r="4" fill="#fcc5d0ff" />
  <circle cx="102" cy="52" r="3" fill="#fcc5d0ff" />
  <circle cx="101" cy="61" r="5" fill="#f84d54ff" />
  <circle cx="101" cy="71" r="3" fill="#fcc5d0ff" />
  <circle cx="101" cy="81" r="4" fill="#fcc5d0ff" />
  <circle cx="102" cy="92" r="4" fill="#fcc5d0ff" />
  <circle cx="102" cy="102" r="3" fill="#f84d54ff" />
  <circle cx="101" cy="111" r="5" fill="#e0e0e0ff" />
  <circle cx="101" cy="121" r="4" fill="#000000ff" />
  <circle cx="102" cy="132" r="3" fill="#000000ff" />
  <circle cx="101" cy="141" r="3" fill="#e0e0e0ff" />
  <circle cx="102" cy="152" r="4" fill="#e0e0e0ff" />
  <circle cx="102" cy="162" r="5" fill="#e0e0e0ff" />
  <circle cx="102" cy="172" r="3" fill="#000000ff" />
  <circle cx="102" cy="182" r="4" fill="#000000ff" />
  <circle cx="102" cy="192" r="4" fill="#000000ff" />
  <circle cx="101" cy="201" r="5" fill="#000000ff" />
  <circle cx="102" cy="212" r="3" fill="#e0e0e0ff" />
  <circle cx="102" cy="222" r="4" fill="#e0e0e0ff" />
  <circle cx="102" cy="232" r="3" fill="#e0e0e0ff" />
  <circle cx="112" cy="22" r="5" fill="#f84d54ff" />
  <circle cx="112" cy="32" r="4" fill="#f84d54ff" />
  <circle cx="112" cy="42" r="3" fill="#fcc5d0ff" />
  <circle cx="111" cy="51" r="3" fill="#f84d54ff" />
  <circle cx="111" cy="61" r="3" fill="#fff869ff" />
  <circle cx="112" cy="72" r="5" fill="#f84d54ff" />
  <circle cx="112" cy="82" r="5" fill="#fcc5d0ff" />
  <circle cx="111" cy="91" r="4" fill="#f84d54ff" />
  <circle cx="112" cy="102" r="5" fill="#f84d54ff" />
  <circle cx="111" cy="111" r="5" fill="#e0e0e0ff" />
  <circle cx="111" cy="121" r="5" fill="#e0e0e0ff" />
  <circle cx="112" cy="132" r="4" fill="#e0e0e0ff" />
  <circle cx="112" cy="142" r="3" fill="#e0e0e0ff" />
  <circle cx="111" cy="151" r="4" fill="#e0e0e0ff" />
  <circle cx="112" cy="162" r="5" fill="#e0e0e0ff" />
  <circle cx="112" cy="172" r="5" fill="#e0e0e0ff" />
  <circle cx="111" cy="181" r="4" fill="#000000ff" />
  <circle cx="111" cy="191" r="4" fill="#e0e0e0ff" />
  <circle cx="111" cy="201" r="4" fill="#e0e0e0ff" />
  <circle cx="112" cy="212" r="4" fill="#000000ff" />
  <circle cx="111" cy="221" r="4" fill="#e0e0e0ff" />
  <circle cx="112" cy="232" r="3" fill="#e0e0e0ff" />
  <circle cx="121" cy="31" r="5" fill="#f84d54ff" />
  <circle cx="122" cy="42" r="5" fill="#f84d54ff" />
  <circle cx="121" cy="51" r="5" fill="#fff869ff" />
  <circle cx="122" cy="62" r="3" fill="#fff869ff" />
  <circle cx="122" cy="72" r="3" fill="#fff869ff" />
  <circle cx="122" cy="82" r="4" fill="#f84d54ff" />
  <circle cx="122" cy="92" r="5" fill="#f84d54ff" />
  <circle cx="121" cy="101" r="3" fill="#e0e0e0ff" />
  <circle cx="121" cy="111" r="3" fill="#e0e0e0ff" />
  <circle cx="121" cy="121" r="4" fill="#e0e0e0ff" />
  <circle cx="121" cy="131" r="5" fill="#e0e0e0ff" />
  <circle cx="122" cy="142" r="3" fill="#e0e0e0ff" />
  <circle cx="122" cy="152" r="5" fill="#000000ff" />
  <circle cx="121" cy="161" r="3" fill="#e0e0e0ff" />
  <circle cx="122" cy="172" r="4" fill="#000000ff" />
  <circle cx="121" cy="181" r="5" fill="#000000ff" />
  <circle cx="122" cy="192" r="3" fill="#000000ff" />
  <circle cx="122" cy="202" r="5" fill="#e0e0e0ff" />
  <circle cx="122" cy="212" r="4" fill="#000000ff" />
  <circle cx="122" cy="222" r="3" fill="#000000ff" />
  <circle cx="122" cy="232" r="5" fill="#000000ff" />
  <circle cx="131" cy="51" r="3" fill="#fff869ff" />
  <circle cx="132" cy="62" r="4" fill="#fff869ff" />
  <circle cx="131" cy="71" r="4" fill="#fff869ff" />
  <circle cx="132" cy="82" r="5" fill="#fff869ff" />
  <circle cx="132" cy="92" r="4" fill="#e0e0e0ff" />
  <circle cx="131" cy="101" r="4" fill="#e0e0e0ff" />
  <circle cx="131" cy="111" r="3" fill="#e0e0e0ff" />
  <circle cx="131" cy="121" r="5" fill="#e0e0e0ff" />
  <circle cx="132" cy="132" r="4" fill="#e0e0e0ff" />
  <circle cx="132" cy="142" r="3" fill="#e0e0e0ff" />
  <circle cx="131" cy="151" r="5" fill="#e0e0e0ff" />
  <circle cx="131" cy="161" r="5" fill="#e0e0e0ff" />
  <circle cx="131" cy="171" r="5" fill="#e0e0e0ff" />
  <circle cx="131" cy="181" r="3" fill="#000000ff" />
  <circle cx="132" cy="192" r="5" fill="#e0e0e0ff" />
  <circle cx="132" cy="202" r="5" fill="#e0e0e0ff" />
  <circle cx="132" cy="212" r="3" fill="#000000ff" />
  <circle cx="132" cy="222" r="5" fill="#fff869ff" />
  <circle cx="141" cy="51" r="5" fill="#fff869ff" />
  <circle cx="141" cy="61" r="4" fill="#f84d54ff" />
  <circle cx="142" cy="72" r="5" fill="#fff869ff" />
  <circle cx="141" cy="81" r="5" fill="#f84d54ff" />
  <circle cx="142" cy="92" r="5" fill="#e0e0e0ff" />
  <circle cx="141" cy="101" r="5" fill="#e0e0e0ff" />
  <circle cx="141" cy="111" r="3" fill="#e0e0e0ff" />
  <circle cx="141" cy="121" r="3" fill="#000000ff" />
  <circle cx="141" cy="131" r="3" fill="#000000ff" />
  <circle cx="141" cy="141" r="3" fill="#e0e0e0ff" />
  <circle cx="142" cy="152" r="3" fill="#e0e0e0ff" />
  <circle cx="141" cy="161" r="5" fill="#e0e0e0ff" />
  <circle cx="142" cy="172" r="3" fill="#000000ff" />
  <circle cx="142" cy="182" r="3" fill="#000000ff" />
  <circle cx="141" cy="191" r="5" fill="#000000ff" />
  <circle cx="142" cy="202" r="5" fill="#000000ff" />
  <circle cx="141" cy="211" r="5" fill="#fff869ff" />
  <circle cx="142" cy="222" r="3" fill="#fff869ff" />
  <circle cx="151" cy="51" r="5" fill="#f84d54ff" />
  <circle cx="152" cy="62" r="5" fill="#fcc5d0ff" />
  <circle cx="151" cy="71" r="5" fill="#f84d54ff" />
  <circle cx="152" cy="82" r="5" fill="#fcc5d0ff" />
  <circle cx="152" cy="92" r="3" fill="#f84d54ff" />
  <circle cx="152" cy="102" r="4" fill="#e0e0e0ff" />
  <circle cx="152" cy="112" r="5" fill="#e0e0e0ff" />
  <circle cx="152" cy="122" r="4" fill="#000000ff" />
  <circle cx="152" cy="132" r="4" fill="#000000ff" />
  <circle cx="151" cy="141" r="4" fill="#e0e0e0ff" />
  <circle cx="152" cy="152" r="4" fill="#e0e0e0ff" />
  <circle cx="152" cy="162" r="3" fill="#e0e0e0ff" />
  <circle cx="151" cy="171" r="5" fill="#e0e0e0ff" />
  <circle cx="151" cy="181" r="3" fill="#e0e0e0ff" />
  <circle cx="152" cy="192" r="3" fill="#000000ff" />
  <circle cx="151" cy="201" r="5" fill="#fff869ff" />
  <circle cx="151" cy="211" r="3" fill="#fff869ff" />
  <circle cx="151" cy="221" r="4" fill="#fff869ff" />
  <circle cx="161" cy="61" r="3" fill="#f84d54ff" />
  <circle cx="161" cy="71" r="5" fill="#ffff0fff" />
  <circle cx="162" cy="82" r="4" fill="#f84d54ff" />
  <circle cx="161" cy="91" r="3" fill="#fff869ff" />
  <circle cx="162" cy="102" r="5" fill="#fff869ff" />
  <circle cx="162" cy="112" r="5" fill="#fff869ff" />
  <circle cx="161" cy="121" r="3" fill="#fff869ff" />
  <circle cx="162" cy="132" r="4" fill="#fff869ff" />
  <circle cx="162" cy="142" r="4" fill="#fff869ff" />
  <circle cx="161" cy="151" r="4" fill="#fff869ff" />
  <circle cx="161" cy="161" r="4" fill="#fff869ff" />
  <circle cx="162" cy="172" r="4" fill="#fff869ff" />
  <circle cx="162" cy="182" r="3" fill="#fff869ff" />
  <circle cx="161" cy="191" r="3" fill="#fff869ff" />
  <circle cx="162" cy="202" r="3" fill="#fff869ff" />
  <circle cx="161" cy="211" r="5" fill="#fff869ff" />
  <circle cx="172" cy="52" r="5" fill="#f84d54ff" />
  <circle cx="172" cy="62" r="5" fill="#fcc5d0ff" />
  <circle cx="172" cy="72" r="5" fill="#f84d54ff" />
  <circle cx="171" cy="81" r="3" fill="#fcc5d0ff" />
  <circle cx="171" cy="91" r="4" fill="#f84d54ff" />
  <circle cx="171" cy="101" r="3" fill="#fff869ff" />
  <circle cx="171" cy="111" r="3" fill="#fff869ff" />
  <circle cx="171" cy="121" r="5" fill="#fff869ff" />
  <circle cx="172" cy="132" r="3" fill="#fff869ff" />
  <circle cx="172" cy="142" r="5" fill="#fff869ff" />
  <circle cx="172" cy="152" r="5" fill="#fff869ff" />
  <circle cx="171" cy="161" r="5" fill="#fff869ff" />
  <circle cx="171" cy="171" r="3" fill="#fff869ff" />
  <circle cx="171" cy="181" r="3" fill="#fff869ff" />
  <circle cx="172" cy="192" r="3" fill="#fff869ff" />
  <circle cx="172" cy="202" r="4" fill="#fff869ff" />
  <circle cx="181" cy="61" r="4" fill="#f84d54ff" />
  <circle cx="182" cy="82" r="5" fill="#f84d54ff" />
  <circle cx="181" cy="101" r="3" fill="#fff869ff" />
  <circle cx="182" cy="112" r="5" fill="#fff869ff" />
  <circle cx="182" cy="122" r="5" fill="#fff869ff" />
  <circle cx="182" cy="132" r="4" fill="#fff869ff" />
  <circle cx="181" cy="141" r="5" fill="#fff869ff" />
  <circle cx="181" cy="151" r="3" fill="#fff869ff" />
  <circle cx="182" cy="162" r="3" fill="#fff869ff" />
  <circle cx="182" cy="172" r="5" fill="#fff869ff" />
  <circle cx="182" cy="182" r="4" fill="#fff869ff" />
</svg>