<!--
     generated by pixelart/v1.1.0 on 2021-09-25 12:38:28 UTC
     
     spots_hidef with settings:
         {"spot":5,"spacing":5,"center":[-1,1],"radius":[3,6]}

-->

<svg version="1.1" width="235" height="235" xmlns="http://www.w3.org/2000/svg">
  <circle cx="62" cy="122" r="3" fill="#000000ff" />
  <circle cx="61" cy="131" r="4" fill="#000000ff" />
  <circle cx="61" cy="141" r="5" fill="#000000ff" />
  <circle cx="71" cy="91" r="5" fill="#000000ff" />
  <circle cx="72" cy="102" r="4" fill="#000000ff" />
  <circle cx="71" cy="111" r="3" fill="#000000ff" />
  <circle cx="72" cy="122" r="5" fill="#000000ff" />
  <circle cx="71" cy="131" r="3" fill="#000000ff" />
  <circle cx="72" cy="142" r="4" fill="#000000ff" />
  <circle cx="71" cy="151" r="5" fill="#000000ff" />
  <circle cx="72" cy="162" r="3" fill="#000000ff" />
  <circle cx="72" cy="172" r="5" fill="#000000ff" />
  <circle cx="71" cy="181" r="3" fill="#000000ff" />
  <circle cx="81" cy="81" r="4" fill="#000000ff" />
  <circle cx="82" cy="92" r="4" fill="#5f5147ff" />
  <circle cx="81" cy="101" r="4" fill="#2a231cff" />
  <circle cx="82" cy="112" r="5" fill="#5f5147ff" />
  <circle cx="81" cy="121" r="3" fill="#5f5147ff" />
  <circle cx="82" cy="132" r="5" fill="#1f1a15ff" />
  <circle cx="81" cy="141" r="5" fill="#1f1a15ff" />
  <circle cx="82" cy="152" r="5" fill="#5f5147ff" />
  <circle cx="81" cy="161" r="4" fill="#2a231cff" />
  <circle cx="82" cy="172" r="5" fill="#5f5147ff" />
  <circle cx="81" cy="181" r="3" fill="#2a231cff" />
  <circle cx="81" cy="191" r="3" fill="#000000ff" />
  <circle cx="82" cy="202" r="5" fill="#000000ff" />
  <circle cx="81" cy="211" r="4" fill="#000000ff" />
  <circle cx="81" cy="221" r="3" fill="#000000ff" />
  <circle cx="82" cy="232" r="5" fill="#000000ff" />
  <circle cx="92" cy="72" r="3" fill="#000000ff" />
  <circle cx="91" cy="81" r="4" fill="#2a231cff" />
  <circle cx="92" cy="92" r="4" fill="#5f5147ff" />
  <circle cx="91" cy="101" r="5" fill="#2a231cff" />
  <circle cx="92" cy="112" r="5" fill="#5f5147ff" />
  <circle cx="91" cy="121" r="4" fill="#1f1a15ff" />
  <circle cx="92" cy="132" r="5" fill="#1f1a15ff" />
  <circle cx="91" cy="141" r="4" fill="#1f1a15ff" />
  <circle cx="91" cy="151" r="4" fill="#5f5147ff" />
  <circle cx="91" cy="161" r="3" fill="#2a231cff" />
  <circle cx="91" cy="171" r="4" fill="#5f5147ff" />
  <circle cx="92" cy="182" r="4" fill="#2a231cff" />
  <circle cx="91" cy="191" r="5" fill="#5f5147ff" />
  <circle cx="92" cy="202" r="3" fill="#2a231cff" />
  <circle cx="92" cy="212" r="5" fill="#5f5147ff" />
  <circle cx="91" cy="221" r="5" fill="#2a231cff" />
  <circle cx="92" cy="232" r="5" fill="#5f5147ff" />
  <circle cx="101" cy="71" r="4" fill="#000000ff" />
  <circle cx="101" cy="81" r="4" fill="#2a231cff" />
  <circle cx="101" cy="91" r="5" fill="#927b6aff" />
  <circle cx="102" cy="102" r="5" fill="#2a231cff" />
  <circle cx="102" cy="112" r="4" fill="#927b6aff" />
  <circle cx="102" cy="122" r="5" fill="#1f1a15ff" />
  <circle cx="101" cy="131" r="3" fill="#f6000bff" />
  <circle cx="101" cy="141" r="3" fill="#1f1a15ff" />
  <circle cx="101" cy="151" r="3" fill="#927b6aff" />
  <circle cx="102" cy="162" r="4" fill="#2a231cff" />
  <circle cx="102" cy="172" r="3" fill="#927b6aff" />
  <circle cx="102" cy="182" r="5" fill="#2a231cff" />
  <circle cx="102" cy="192" r="3" fill="#927b6aff" />
  <circle cx="101" cy="201" r="5" fill="#000000ff" />
  <circle cx="102" cy="212" r="5" fill="#5f5147ff" />
  <circle cx="102" cy="222" r="5" fill="#2a231cff" />
  <circle cx="101" cy="231" r="3" fill="#5f5147ff" />
  <circle cx="111" cy="71" r="4" fill="#000000ff" />
  <circle cx="111" cy="81" r="3" fill="#927b6aff" />
  <circle cx="112" cy="92" r="3" fill="#927b6aff" />
  <circle cx="112" cy="102" r="4" fill="#2a231cff" />
  <circle cx="112" cy="112" r="5" fill="#927b6aff" />
  <circle cx="111" cy="121" r="5" fill="#1f1a15ff" />
  <circle cx="112" cy="132" r="4" fill="#1f1a15ff" />
  <circle cx="112" cy="142" r="3" fill="#1f1a15ff" />
  <circle cx="112" cy="152" r="3" fill="#927b6aff" />
  <circle cx="112" cy="162" r="5" fill="#2a231cff" />
  <circle cx="111" cy="171" r="5" fill="#927b6aff" />
  <circle cx="111" cy="181" r="4" fill="#2a231cff" />
  <circle cx="112" cy="192" r="5" fill="#927b6aff" />
  <circle cx="112" cy="202" r="3" fill="#2a231cff" />
  <circle cx="112" cy="212" r="3" fill="#000000ff" />
  <circle cx="112" cy="222" r="3" fill="#2a231cff" />
  <circle cx="112" cy="232" r="5" fill="#927b6aff" />
  <circle cx="122" cy="72" r="3" fill="#000000ff" />
  <circle cx="121" cy="81" r="5" fill="#927b6aff" />
  <circle cx="122" cy="92" r="4" fill="#2a231cff" />
  <circle cx="121" cy="101" r="4" fill="#2a231cff" />
  <circle cx="121" cy="111" r="4" fill="#927b6aff" />
  <circle cx="122" cy="122" r="5" fill="#1f1a15ff" />
  <circle cx="121" cy="131" r="4" fill="#1f1a15ff" />
  <circle cx="121" cy="141" r="5" fill="#1f1a15ff" />
  <circle cx="121" cy="151" r="4" fill="#2a231cff" />
  <circle cx="122" cy="162" r="5" fill="#2a231cff" />
  <circle cx="121" cy="171" r="5" fill="#927b6aff" />
  <circle cx="121" cy="181" r="5" fill="#2a231cff" />
  <circle cx="122" cy="192" r="3" fill="#927b6aff" />
  <circle cx="122" cy="202" r="4" fill="#2a231cff" />
  <circle cx="122" cy="212" r="3" fill="#000000ff" />
  <circle cx="121" cy="221" r="3" fill="#000000ff" />
  <circle cx="121" cy="231" r="4" fill="#000000ff" />
  <circle cx="132" cy="72" r="3" fill="#000000ff" />
  <circle cx="131" cy="81" r="4" fill="#d9b599ff" />
  <circle cx="132" cy="92" r="3" fill="#2a231cff" />
  <circle cx="131" cy="101" r="3" fill="#927b6aff" />
  <circle cx="131" cy="111" r="4" fill="#927b6aff" />
  <circle cx="132" cy="122" r="4" fill="#1f1a15ff" />
  <circle cx="132" cy="132" r="5" fill="#1f1a15ff" />
  <circle cx="131" cy="141" r="4" fill="#1f1a15ff" />
  <circle cx="132" cy="152" r="3" fill="#927b6aff" />
  <circle cx="131" cy="161" r="3" fill="#2a231cff" />
  <circle cx="131" cy="171" r="5" fill="#927b6aff" />
  <circle cx="131" cy="181" r="4" fill="#2a231cff" />
  <circle cx="131" cy="191" r="4" fill="#d9b599ff" />
  <circle cx="132" cy="202" r="3" fill="#2a231cff" />
  <circle cx="131" cy="211" r="3" fill="#000000ff" />
  <circle cx="142" cy="72" r="3" fill="#000000ff" />
  <circle cx="141" cy="81" r="3" fill="#d9b599ff" />
  <circle cx="141" cy="91" r="5" fill="#2a231cff" />
  <circle cx="142" cy="102" r="3" fill="#d9b599ff" />
  <circle cx="141" cy="111" r="3" fill="#d9b599ff" />
  <circle cx="142" cy="122" r="4" fill="#1f1a15ff" />
  <circle cx="141" cy="131" r="5" fill="#f6000bff" />
  <circle cx="141" cy="141" r="4" fill="#1f1a15ff" />
  <circle cx="141" cy="151" r="3" fill="#d9b599ff" />
  <circle cx="142" cy="162" r="5" fill="#2a231cff" />
  <circle cx="142" cy="172" r="3" fill="#d9b599ff" />
  <circle cx="141" cy="181" r="3" fill="#2a231cff" />
  <circle cx="142" cy="192" r="5" fill="#d9b599ff" />
  <circle cx="142" cy="202" r="5" fill="#000000ff" />
  <circle cx="152" cy="82" r="5" fill="#000000ff" />
  <circle cx="151" cy="91" r="4" fill="#2a231cff" />
  <circle cx="151" cy="101" r="3" fill="#d9b599ff" />
  <circle cx="151" cy="111" r="3" fill="#d9b599ff" />
  <circle cx="152" cy="122" r="4" fill="#1f1a15ff" />
  <circle cx="152" cy="132" r="5" fill="#1f1a15ff" />
  <circle cx="152" cy="142" r="4" fill="#1f1a15ff" />
  <circle cx="152" cy="152" r="5" fill="#d9b599ff" />
  <circle cx="152" cy="162" r="3" fill="#2a231cff" />
  <circle cx="152" cy="172" r="3" fill="#d9b599ff" />
  <circle cx="151" cy="181" r="5" fill="#2a231cff" />
  <circle cx="151" cy="191" r="5" fill="#000000ff" />
  <circle cx="161" cy="91" r="5" fill="#000000ff" />
  <circle cx="162" cy="102" r="5" fill="#000000ff" />
  <circle cx="161" cy="111" r="3" fill="#000000ff" />
  <circle cx="161" cy="121" r="3" fill="#000000ff" />
  <circle cx="162" cy="132" r="3" fill="#000000ff" />
  <circle cx="162" cy="142" r="4" fill="#000000ff" />
  <circle cx="161" cy="151" r="5" fill="#000000ff" />
  <circle cx="162" cy="162" r="5" fill="#000000ff" />
  <circle cx="162" cy="172" r="4" fill="#000000ff" />
  <circle cx="161" cy="181" r="5" fill="#000000ff" />
</svg>