<!--
     generated by pixelart/v1.1.0 on 2021-09-25 12:38:27 UTC
     
     spots_hidef with settings:
         {"spot":5,"spacing":5,"center":[-1,1],"radius":[3,6]}

-->

<svg version="1.1" width="235" height="235" xmlns="http://www.w3.org/2000/svg">
  <circle cx="31" cy="41" r="4" fill="#f6000bff" />
  <circle cx="32" cy="82" r="3" fill="#f6000bff" />
  <circle cx="32" cy="102" r="4" fill="#f6000bff" />
  <circle cx="42" cy="32" r="5" fill="#f6000bff" />
  <circle cx="41" cy="41" r="4" fill="#f6000bff" />
  <circle cx="41" cy="51" r="3" fill="#f6000bff" />
  <circle cx="42" cy="72" r="5" fill="#f6000bff" />
  <circle cx="42" cy="82" r="5" fill="#f6000bff" />
  <circle cx="41" cy="101" r="4" fill="#f6000bff" />
  <circle cx="41" cy="111" r="5" fill="#f6000bff" />
  <circle cx="52" cy="42" r="5" fill="#fa6b0dff" />
  <circle cx="51" cy="51" r="4" fill="#f6000bff" />
  <circle cx="52" cy="62" r="3" fill="#f6000bff" />
  <circle cx="52" cy="72" r="5" fill="#f6000bff" />
  <circle cx="52" cy="82" r="3" fill="#f6000bff" />
  <circle cx="51" cy="91" r="5" fill="#f6000bff" />
  <circle cx="52" cy="102" r="4" fill="#f6000bff" />
  <circle cx="51" cy="111" r="4" fill="#f6000bff" />
  <circle cx="52" cy="122" r="4" fill="#f6000bff" />
  <circle cx="62" cy="22" r="4" fill="#fa6b0dff" />
  <circle cx="61" cy="31" r="3" fill="#fa6b0dff" />
  <circle cx="61" cy="41" r="3" fill="#fa6b0dff" />
  <circle cx="61" cy="51" r="3" fill="#fa6b0dff" />
  <circle cx="62" cy="62" r="5" fill="#fa6b0dff" />
  <circle cx="62" cy="72" r="3" fill="#fa6b0dff" />
  <circle cx="61" cy="81" r="3" fill="#fa6b0dff" />
  <circle cx="61" cy="91" r="3" fill="#fa6b0dff" />
  <circle cx="62" cy="102" r="4" fill="#f6000bff" />
  <circle cx="61" cy="111" r="5" fill="#fa6b0dff" />
  <circle cx="61" cy="121" r="4" fill="#fa6b0dff" />
  <circle cx="61" cy="131" r="4" fill="#fa6b0dff" />
  <circle cx="62" cy="142" r="4" fill="#000000ff" />
  <circle cx="71" cy="31" r="5" fill="#ffff0fff" />
  <circle cx="71" cy="41" r="3" fill="#ffff0fff" />
  <circle cx="71" cy="51" r="3" fill="#fa6b0dff" />
  <circle cx="71" cy="61" r="4" fill="#fa6b0dff" />
  <circle cx="71" cy="71" r="5" fill="#ffff0fff" />
  <circle cx="72" cy="82" r="5" fill="#ffff0fff" />
  <circle cx="72" cy="92" r="4" fill="#fa6b0dff" />
  <circle cx="72" cy="102" r="3" fill="#fa6b0dff" />
  <circle cx="71" cy="111" r="5" fill="#fa6b0dff" />
  <circle cx="72" cy="122" r="4" fill="#9a6a4aff" />
  <circle cx="72" cy="132" r="4" fill="#9a6a4aff" />
  <circle cx="71" cy="141" r="3" fill="#000000ff" />
  <circle cx="71" cy="151" r="4" fill="#000000ff" />
  <circle cx="72" cy="162" r="5" fill="#000000ff" />
  <circle cx="72" cy="172" r="5" fill="#000000ff" />
  <circle cx="71" cy="181" r="4" fill="#000000ff" />
  <circle cx="82" cy="42" r="3" fill="#ffff0fff" />
  <circle cx="82" cy="52" r="4" fill="#ffff0fff" />
  <circle cx="81" cy="61" r="5" fill="#ffff0fff" />
  <circle cx="81" cy="71" r="3" fill="#ffff0fff" />
  <circle cx="81" cy="81" r="4" fill="#ffff0fff" />
  <circle cx="81" cy="91" r="5" fill="#ffff0fff" />
  <circle cx="81" cy="101" r="3" fill="#9a6a4aff" />
  <circle cx="82" cy="112" r="4" fill="#9a6a4aff" />
  <circle cx="81" cy="121" r="3" fill="#9a6a4aff" />
  <circle cx="81" cy="131" r="3" fill="#9a6a4aff" />
  <circle cx="82" cy="142" r="4" fill="#9a6a4aff" />
  <circle cx="81" cy="151" r="5" fill="#9a6a4aff" />
  <circle cx="81" cy="161" r="4" fill="#9a6a4aff" />
  <circle cx="82" cy="172" r="4" fill="#9a6a4aff" />
  <circle cx="82" cy="182" r="3" fill="#9a6a4aff" />
  <circle cx="81" cy="191" r="5" fill="#000000ff" />
  <circle cx="82" cy="202" r="5" fill="#000000ff" />
  <circle cx="82" cy="212" r="3" fill="#000000ff" />
  <circle cx="81" cy="221" r="4" fill="#000000ff" />
  <circle cx="81" cy="231" r="3" fill="#000000ff" />
  <circle cx="91" cy="21" r="4" fill="#ffff0fff" />
  <circle cx="91" cy="31" r="5" fill="#ffff0fff" />
  <circle cx="92" cy="42" r="3" fill="#ffff0fff" />
  <circle cx="91" cy="51" r="5" fill="#ffff0fff" />
  <circle cx="91" cy="61" r="5" fill="#2cff0bff" />
  <circle cx="91" cy="71" r="3" fill="#2cff0bff" />
  <circle cx="91" cy="81" r="4" fill="#2cff0bff" />
  <circle cx="91" cy="91" r="4" fill="#9a6a4aff" />
  <circle cx="91" cy="101" r="3" fill="#9a6a4aff" />
  <circle cx="91" cy="111" r="4" fill="#9a6a4aff" />
  <circle cx="92" cy="122" r="3" fill="#5b402fff" />
  <circle cx="91" cy="131" r="4" fill="#000000ff" />
  <circle cx="91" cy="141" r="3" fill="#9a6a4aff" />
  <circle cx="92" cy="152" r="4" fill="#9a6a4aff" />
  <circle cx="91" cy="161" r="3" fill="#9a6a4aff" />
  <circle cx="92" cy="172" r="5" fill="#9a6a4aff" />
  <circle cx="92" cy="182" r="4" fill="#9a6a4aff" />
  <circle cx="92" cy="192" r="4" fill="#9a6a4aff" />
  <circle cx="91" cy="201" r="3" fill="#9a6a4aff" />
  <circle cx="91" cy="211" r="5" fill="#9a6a4aff" />
  <circle cx="91" cy="221" r="4" fill="#9a6a4aff" />
  <circle cx="91" cy="231" r="4" fill="#9a6a4aff" />
  <circle cx="101" cy="11" r="4" fill="#2cff0bff" />
  <circle cx="102" cy="22" r="3" fill="#2cff0bff" />
  <circle cx="101" cy="31" r="4" fill="#2cff0bff" />
  <circle cx="102" cy="42" r="3" fill="#2cff0bff" />
  <circle cx="101" cy="51" r="4" fill="#2cff0bff" />
  <circle cx="102" cy="62" r="5" fill="#2cff0bff" />
  <circle cx="102" cy="72" r="4" fill="#2cff0bff" />
  <circle cx="102" cy="82" r="4" fill="#0000ffff" />
  <circle cx="101" cy="91" r="5" fill="#9a6a4aff" />
  <circle cx="102" cy="102" r="3" fill="#9a6a4aff" />
  <circle cx="101" cy="111" r="5" fill="#9a6a4aff" />
  <circle cx="102" cy="122" r="4" fill="#5b402fff" />
  <circle cx="102" cy="132" r="3" fill="#845b41ff" />
  <circle cx="101" cy="141" r="3" fill="#9a6a4aff" />
  <circle cx="102" cy="152" r="4" fill="#9a6a4aff" />
  <circle cx="102" cy="162" r="4" fill="#9a6a4aff" />
  <circle cx="101" cy="171" r="4" fill="#9a6a4aff" />
  <circle cx="101" cy="181" r="4" fill="#9a6a4aff" />
  <circle cx="101" cy="191" r="3" fill="#9a6a4aff" />
  <circle cx="101" cy="201" r="4" fill="#000000ff" />
  <circle cx="102" cy="212" r="3" fill="#9a6a4aff" />
  <circle cx="102" cy="222" r="3" fill="#9a6a4aff" />
  <circle cx="102" cy="232" r="5" fill="#9a6a4aff" />
  <circle cx="111" cy="31" r="3" fill="#2cff0bff" />
  <circle cx="111" cy="41" r="5" fill="#2cff0bff" />
  <circle cx="111" cy="51" r="5" fill="#2cff0bff" />
  <circle cx="112" cy="62" r="5" fill="#2cff0bff" />
  <circle cx="112" cy="72" r="5" fill="#0000ffff" />
  <circle cx="111" cy="81" r="5" fill="#0000ffff" />
  <circle cx="112" cy="92" r="5" fill="#0000ffff" />
  <circle cx="112" cy="102" r="5" fill="#9a6a4aff" />
  <circle cx="111" cy="111" r="4" fill="#9a6a4aff" />
  <circle cx="112" cy="122" r="3" fill="#9a6a4aff" />
  <circle cx="112" cy="132" r="4" fill="#9a6a4aff" />
  <circle cx="112" cy="142" r="4" fill="#9a6a4aff" />
  <circle cx="111" cy="151" r="3" fill="#9a6a4aff" />
  <circle cx="111" cy="161" r="4" fill="#9a6a4aff" />
  <circle cx="111" cy="171" r="4" fill="#9a6a4aff" />
  <circle cx="111" cy="181" r="3" fill="#4a010dff" />
  <circle cx="111" cy="191" r="3" fill="#9a6a4aff" />
  <circle cx="112" cy="202" r="4" fill="#9a6a4aff" />
  <circle cx="112" cy="212" r="5" fill="#000000ff" />
  <circle cx="112" cy="222" r="5" fill="#9a6a4aff" />
  <circle cx="112" cy="232" r="4" fill="#9a6a4aff" />
  <circle cx="122" cy="22" r="5" fill="#0000ffff" />
  <circle cx="122" cy="32" r="5" fill="#0000ffff" />
  <circle cx="121" cy="41" r="4" fill="#0000ffff" />
  <circle cx="121" cy="51" r="3" fill="#0000ffff" />
  <circle cx="121" cy="61" r="5" fill="#0000ffff" />
  <circle cx="122" cy="72" r="3" fill="#0000ffff" />
  <circle cx="122" cy="82" r="3" fill="#9a6a4aff" />
  <circle cx="121" cy="91" r="4" fill="#0000ffff" />
  <circle cx="121" cy="101" r="4" fill="#9a6a4aff" />
  <circle cx="122" cy="112" r="4" fill="#9a6a4aff" />
  <circle cx="122" cy="122" r="3" fill="#9a6a4aff" />
  <circle cx="121" cy="131" r="3" fill="#9a6a4aff" />
  <circle cx="121" cy="141" r="5" fill="#9a6a4aff" />
  <circle cx="122" cy="152" r="4" fill="#9a6a4aff" />
  <circle cx="122" cy="162" r="3" fill="#000000ff" />
  <circle cx="122" cy="172" r="4" fill="#9a6a4aff" />
  <circle cx="121" cy="181" r="5" fill="#4a010dff" />
  <circle cx="122" cy="192" r="5" fill="#9a6a4aff" />
  <circle cx="121" cy="201" r="3" fill="#9a6a4aff" />
  <circle cx="122" cy="212" r="3" fill="#000000ff" />
  <circle cx="122" cy="222" r="4" fill="#000000ff" />
  <circle cx="122" cy="232" r="3" fill="#000000ff" />
  <circle cx="131" cy="21" r="4" fill="#0000ffff" />
  <circle cx="131" cy="31" r="5" fill="#0000ffff" />
  <circle cx="132" cy="42" r="4" fill="#0000ffff" />
  <circle cx="131" cy="51" r="3" fill="#0000ffff" />
  <circle cx="132" cy="62" r="3" fill="#0000ffff" />
  <circle cx="131" cy="71" r="3" fill="#6b00ffff" />
  <circle cx="132" cy="82" r="3" fill="#9a6a4aff" />
  <circle cx="131" cy="91" r="5" fill="#9a6a4aff" />
  <circle cx="132" cy="102" r="3" fill="#9a6a4aff" />
  <circle cx="132" cy="112" r="4" fill="#9a6a4aff" />
  <circle cx="132" cy="122" r="3" fill="#9a6a4aff" />
  <circle cx="131" cy="131" r="3" fill="#9a6a4aff" />
  <circle cx="132" cy="142" r="3" fill="#9a6a4aff" />
  <circle cx="132" cy="152" r="5" fill="#9a6a4aff" />
  <circle cx="132" cy="162" r="5" fill="#9a6a4aff" />
  <circle cx="131" cy="171" r="4" fill="#9a6a4aff" />
  <circle cx="132" cy="182" r="5" fill="#4a010dff" />
  <circle cx="132" cy="192" r="4" fill="#9a6a4aff" />
  <circle cx="132" cy="202" r="4" fill="#9a6a4aff" />
  <circle cx="131" cy="211" r="4" fill="#000000ff" />
  <circle cx="142" cy="32" r="3" fill="#6b00ffff" />
  <circle cx="142" cy="42" r="5" fill="#0000ffff" />
  <circle cx="141" cy="51" r="5" fill="#6b00ffff" />
  <circle cx="142" cy="62" r="3" fill="#6b00ffff" />
  <circle cx="141" cy="71" r="5" fill="#6b00ffff" />
  <circle cx="142" cy="82" r="4" fill="#6b00ffff" />
  <circle cx="141" cy="91" r="5" fill="#9a6a4aff" />
  <circle cx="142" cy="102" r="3" fill="#9a6a4aff" />
  <circle cx="141" cy="111" r="3" fill="#9a6a4aff" />
  <circle cx="142" cy="122" r="4" fill="#5b402fff" />
  <circle cx="142" cy="132" r="3" fill="#000000ff" />
  <circle cx="142" cy="142" r="3" fill="#9a6a4aff" />
  <circle cx="141" cy="151" r="4" fill="#9a6a4aff" />
  <circle cx="141" cy="161" r="5" fill="#9a6a4aff" />
  <circle cx="141" cy="171" r="4" fill="#9a6a4aff" />
  <circle cx="142" cy="182" r="4" fill="#9a6a4aff" />
  <circle cx="142" cy="192" r="4" fill="#9a6a4aff" />
  <circle cx="142" cy="202" r="3" fill="#000000ff" />
  <circle cx="151" cy="21" r="5" fill="#6b00ffff" />
  <circle cx="151" cy="31" r="5" fill="#6b00ffff" />
  <circle cx="152" cy="42" r="5" fill="#6b00ffff" />
  <circle cx="151" cy="51" r="5" fill="#6b00ffff" />
  <circle cx="151" cy="61" r="4" fill="#6b00ffff" />
  <circle cx="151" cy="71" r="5" fill="#6b00ffff" />
  <circle cx="151" cy="81" r="5" fill="#6b00ffff" />
  <circle cx="151" cy="91" r="5" fill="#6b00ffff" />
  <circle cx="152" cy="102" r="3" fill="#9a6a4aff" />
  <circle cx="151" cy="111" r="3" fill="#9a6a4aff" />
  <circle cx="151" cy="121" r="4" fill="#5b402fff" />
  <circle cx="152" cy="132" r="3" fill="#845b41ff" />
  <circle cx="151" cy="141" r="5" fill="#9a6a4aff" />
  <circle cx="152" cy="152" r="5" fill="#9a6a4aff" />
  <circle cx="152" cy="162" r="4" fill="#9a6a4aff" />
  <circle cx="152" cy="172" r="5" fill="#9a6a4aff" />
  <circle cx="152" cy="182" r="3" fill="#9a6a4aff" />
  <circle cx="151" cy="191" r="3" fill="#000000ff" />
  <circle cx="161" cy="31" r="5" fill="#6b00ffff" />
  <circle cx="162" cy="52" r="5" fill="#f600ffff" />
  <circle cx="161" cy="61" r="5" fill="#6b00ffff" />
  <circle cx="161" cy="71" r="4" fill="#6b00ffff" />
  <circle cx="161" cy="81" r="5" fill="#f600ffff" />
  <circle cx="161" cy="91" r="4" fill="#6b00ffff" />
  <circle cx="161" cy="101" r="5" fill="#6b00ffff" />
  <circle cx="162" cy="112" r="4" fill="#f600ffff" />
  <circle cx="161" cy="121" r="3" fill="#f600ffff" />
  <circle cx="161" cy="131" r="5" fill="#000000ff" />
  <circle cx="161" cy="141" r="3" fill="#000000ff" />
  <circle cx="161" cy="151" r="3" fill="#000000ff" />
  <circle cx="162" cy="162" r="5" fill="#000000ff" />
  <circle cx="162" cy="172" r="4" fill="#000000ff" />
  <circle cx="161" cy="181" r="3" fill="#000000ff" />
  <circle cx="172" cy="52" r="4" fill="#f600ffff" />
  <circle cx="171" cy="61" r="5" fill="#f600ffff" />
  <circle cx="172" cy="72" r="3" fill="#f600ffff" />
  <circle cx="171" cy="81" r="3" fill="#f600ffff" />
  <circle cx="171" cy="91" r="4" fill="#f600ffff" />
  <circle cx="171" cy="101" r="4" fill="#f600ffff" />
  <circle cx="171" cy="111" r="5" fill="#f600ffff" />
  <circle cx="171" cy="121" r="3" fill="#f600ffff" />
  <circle cx="181" cy="41" r="4" fill="#f600ffff" />
  <circle cx="182" cy="52" r="5" fill="#f600ffff" />
  <circle cx="181" cy="61" r="4" fill="#f600ffff" />
  <circle cx="182" cy="72" r="5" fill="#f600ffff" />
  <circle cx="181" cy="81" r="4" fill="#f600ffff" />
  <circle cx="181" cy="101" r="3" fill="#f600ffff" />
  <circle cx="181" cy="111" r="4" fill="#f600ffff" />
  <circle cx="191" cy="41" r="4" fill="#f600ffff" />
  <circle cx="192" cy="62" r="5" fill="#f600ffff" />
  <circle cx="192" cy="102" r="5" fill="#f600ffff" />
</svg>